<svg xmlns="http://www.w3.org/2000/svg" xmlns:xlink="http://www.w3.org/1999/xlink" xmlns:lucid="lucid" width="4189.24" height="2844.23"><g transform="translate(2390.823938387141 241.16703395696572)" lucid:page-tab-id="0_0"><path d="M-647.84 1156.88a6 6 0 0 1 6-6h445.04a6 6 0 0 1 6 6v108a6 6 0 0 1-6 6h-445.04a6 6 0 0 1-6-6z" fill="none"/><use xlink:href="#a" transform="matrix(1,0,0,1,-627.8435931024981,1173.8829660430342) translate(0.48148148148146674 53.833333333333336)"/><path d="M-572.47 316.85a6 6 0 0 1 6-6h294.3a6 6 0 0 1 6 6v108a6 6 0 0 1-6 6h-294.3a6 6 0 0 1-6-6z" fill="none"/><use xlink:href="#b" transform="matrix(1,0,0,1,-552.4732227321276,333.85296604303426) translate(0 53.833333333333336)"/><path d="M-697.94 596.86a6 6 0 0 1 6-6h545.24a6 6 0 0 1 6 6v108a6 6 0 0 1-6 6h-545.24a6 6 0 0 1-6-6z" fill="none"/><use xlink:href="#c" transform="matrix(1,0,0,1,-677.9361856950907,613.8629660430342) translate(0 53.833333333333336)"/><path d="M-419.32 36.34v-155" stroke="#ba23f6" stroke-width="5" stroke-linejoin="round" fill="none"/><path d="M-416.85 38.84h-4.94v-2.56h4.95zM-416.85-118.6h-4.94v-2.56h4.95z" stroke="#ba23f6" stroke-width=".05" fill="#ba23f6"/><path d="M-419.32 993.4v154.98" stroke="#635dff" stroke-width="5" stroke-linejoin="round" fill="none"/><path d="M-416.85 993.45h-4.94v-2.57h4.95zM-416.85 1150.88h-4.94v-2.56h4.95z" stroke="#635dff" stroke-width=".05" fill="#635dff"/><path d="M-707.1 1430.9h575.56v120H-707.1z" fill="none"/><use xlink:href="#d" transform="matrix(1,0,0,1,-687.1028523617573,1453.892966043034) translate(0 53.833333333333336)"/><path d="M-770.07 1710.9h701.5v120h-701.5z" fill="none"/><use xlink:href="#e" transform="matrix(1,0,0,1,-750.0658153247202,1733.9029660430342) translate(0 53.833333333333336)"/><path d="M-419.32 713.38v155" stroke="#635dff" stroke-width="5" stroke-linejoin="round" fill="none"/><path d="M-416.85 713.44h-4.94v-2.57h4.95zM-416.85 870.87h-4.94v-2.56h4.95z" stroke="#635dff" stroke-width=".05" fill="#635dff"/><path d="M-419.32 433.37v155" stroke="#635dff" stroke-width="5" stroke-linejoin="round" fill="none"/><path d="M-416.85 433.43h-4.94v-2.57h4.95zM-416.85 590.86h-4.94v-2.56h4.95z" stroke="#635dff" stroke-width=".05" fill="#635dff"/><path d="M-419.32 1553.4v155" stroke="#635dff" stroke-width="5" stroke-linejoin="round" fill="none"/><path d="M-416.85 1553.47h-4.94v-2.57h4.95zM-416.85 1710.9h-4.94v-2.56h4.95z" stroke="#635dff" stroke-width=".05" fill="#635dff"/><path d="M-419.32 1273.4v155" stroke="#635dff" stroke-width="5" stroke-linejoin="round" fill="none"/><path d="M-416.85 1273.46h-4.94v-2.57h4.95zM-416.85 1430.9h-4.94v-2.57h4.95z" stroke="#635dff" stroke-width=".05" fill="#635dff"/><path d="M-419.32 1833.4v155" stroke="#635dff" stroke-width="5" stroke-linejoin="round" fill="none"/><path d="M-416.85 1833.48h-4.94v-2.57h4.95zM-416.85 1990.9h-4.94v-2.55h4.95z" stroke="#635dff" stroke-width=".05" fill="#635dff"/><path d="M-626-241.17h413.35v120H-626z" fill="none"/><use xlink:href="#f" transform="matrix(1,0,0,1,-605.9917412506461,-218.16703395696572) translate(0 53.833333333333336)"/><path d="M-620.23 78.84a40 40 0 0 1 40-40h321.82a40 40 0 0 1 40 40v32a40 40 0 0 1-40 40h-321.83a40 40 0 0 1-40-40z" fill="#fff"/><use xlink:href="#g" transform="matrix(1,0,0,1,-620.232481991387,38.84296604303425) translate(16.092592592592553 69.83333333333334)"/><path d="M-419.32 2113.43v155" stroke="#635dff" stroke-width="5" stroke-linejoin="round" fill="none"/><path d="M-416.85 2113.5h-4.94v-2.58h4.95zM-416.85 2270.92h-4.94v-2.56h4.95z" stroke="#635dff" stroke-width=".05" fill="#635dff"/><path d="M-648.12 1990.9h457.6v120.02h-457.6z" fill="none"/><use xlink:href="#h" transform="matrix(1,0,0,1,-628.1213708802758,2013.9129660430344) translate(0 53.833333333333336)"/><path d="M-712.75 2270.92h586.86v120h-586.85z" fill="none"/><use xlink:href="#i" transform="matrix(1,0,0,1,-692.7510005099055,2293.9229660430346) translate(0.07407407407407618 53.833333333333336)"/><path d="M-566.92 876.87a6 6 0 0 1 6-6h283.2a6 6 0 0 1 6 6v108a6 6 0 0 1-6 6h-283.2a6 6 0 0 1-6-6z" fill="none"/><use xlink:href="#j" transform="matrix(1,0,0,1,-546.9176671765721,893.8729660430342) translate(0 53.833333333333336)"/><path d="M-419.32 153.35v155" stroke="#635dff" stroke-width="5" stroke-linejoin="round" fill="none"/><path d="M-416.85 153.42h-4.94v-2.57h4.95zM-416.85 310.85h-4.94v-2.56h4.95z" stroke="#635dff" stroke-width=".05" fill="#635dff"/><path d="M-647.84 1156.88a6 6 0 0 1 6-6h445.04a6 6 0 0 1 6 6v108a6 6 0 0 1-6 6h-445.04a6 6 0 0 1-6-6z" fill="none"/><use xlink:href="#a" transform="matrix(1,0,0,1,-627.8435931024981,1173.8829660430342) translate(0.48148148148146674 53.833333333333336)"/><path d="M-572.47 316.85a6 6 0 0 1 6-6h294.3a6 6 0 0 1 6 6v108a6 6 0 0 1-6 6h-294.3a6 6 0 0 1-6-6z" fill="none"/><use xlink:href="#b" transform="matrix(1,0,0,1,-552.4732227321276,333.85296604303426) translate(0 53.833333333333336)"/><path d="M-697.94 596.86a6 6 0 0 1 6-6h545.24a6 6 0 0 1 6 6v108a6 6 0 0 1-6 6h-545.24a6 6 0 0 1-6-6z" fill="none"/><use xlink:href="#c" transform="matrix(1,0,0,1,-677.9361856950907,613.8629660430342) translate(0 53.833333333333336)"/><path d="M-419.32 36.34v-155" stroke="#ba23f6" stroke-width="5" stroke-linejoin="round" fill="none"/><path d="M-416.85 38.84h-4.94v-2.56h4.95zM-416.85-118.6h-4.94v-2.56h4.95z" stroke="#ba23f6" stroke-width=".05" fill="#ba23f6"/><path d="M-419.32 993.4v154.98" stroke="#635dff" stroke-width="5" stroke-linejoin="round" fill="none"/><path d="M-416.85 993.45h-4.94v-2.57h4.95zM-416.85 1150.88h-4.94v-2.56h4.95z" stroke="#635dff" stroke-width=".05" fill="#635dff"/><path d="M-707.1 1430.9h575.56v120H-707.1z" fill="none"/><use xlink:href="#d" transform="matrix(1,0,0,1,-687.1028523617573,1453.892966043034) translate(0 53.833333333333336)"/><path d="M-770.07 1710.9h701.5v120h-701.5z" fill="none"/><use xlink:href="#e" transform="matrix(1,0,0,1,-750.0658153247202,1733.9029660430342) translate(0 53.833333333333336)"/><path d="M-419.32 713.38v155" stroke="#635dff" stroke-width="5" stroke-linejoin="round" fill="none"/><path d="M-416.85 713.44h-4.94v-2.57h4.95zM-416.85 870.87h-4.94v-2.56h4.95z" stroke="#635dff" stroke-width=".05" fill="#635dff"/><path d="M-419.32 433.37v155" stroke="#635dff" stroke-width="5" stroke-linejoin="round" fill="none"/><path d="M-416.85 433.43h-4.94v-2.57h4.95zM-416.85 590.86h-4.94v-2.56h4.95z" stroke="#635dff" stroke-width=".05" fill="#635dff"/><path d="M-419.32 1553.4v155" stroke="#635dff" stroke-width="5" stroke-linejoin="round" fill="none"/><path d="M-416.85 1553.47h-4.94v-2.57h4.95zM-416.85 1710.9h-4.94v-2.56h4.95z" stroke="#635dff" stroke-width=".05" fill="#635dff"/><path d="M-419.32 1273.4v155" stroke="#635dff" stroke-width="5" stroke-linejoin="round" fill="none"/><path d="M-416.85 1273.46h-4.94v-2.57h4.95zM-416.85 1430.9h-4.94v-2.57h4.95z" stroke="#635dff" stroke-width=".05" fill="#635dff"/><path d="M-419.32 1833.4v155" stroke="#635dff" stroke-width="5" stroke-linejoin="round" fill="none"/><path d="M-416.85 1833.48h-4.94v-2.57h4.95zM-416.85 1990.9h-4.94v-2.55h4.95z" stroke="#635dff" stroke-width=".05" fill="#635dff"/><path d="M-626-241.17h413.35v120H-626z" fill="none"/><use xlink:href="#f" transform="matrix(1,0,0,1,-605.9917412506461,-218.16703395696572) translate(0 53.833333333333336)"/><path d="M-620.23 78.84a40 40 0 0 1 40-40h321.82a40 40 0 0 1 40 40v32a40 40 0 0 1-40 40h-321.83a40 40 0 0 1-40-40z" fill="#fff"/><use xlink:href="#g" transform="matrix(1,0,0,1,-620.232481991387,38.84296604303425) translate(16.092592592592553 69.83333333333334)"/><path d="M-419.32 2113.43v155" stroke="#635dff" stroke-width="5" stroke-linejoin="round" fill="none"/><path d="M-416.85 2113.5h-4.94v-2.58h4.95zM-416.85 2270.92h-4.94v-2.56h4.95z" stroke="#635dff" stroke-width=".05" fill="#635dff"/><path d="M-648.12 1990.9h457.6v120.02h-457.6z" fill="none"/><use xlink:href="#h" transform="matrix(1,0,0,1,-628.1213708802758,2013.9129660430344) translate(0 53.833333333333336)"/><path d="M-712.75 2270.92h586.86v120h-586.85z" fill="none"/><use xlink:href="#i" transform="matrix(1,0,0,1,-692.7510005099055,2293.9229660430346) translate(0.07407407407407618 53.833333333333336)"/><path d="M-566.92 876.87a6 6 0 0 1 6-6h283.2a6 6 0 0 1 6 6v108a6 6 0 0 1-6 6h-283.2a6 6 0 0 1-6-6z" fill="none"/><use xlink:href="#j" transform="matrix(1,0,0,1,-546.9176671765721,893.8729660430342) translate(0 53.833333333333336)"/><path d="M-419.32 153.35v155" stroke="#635dff" stroke-width="5" stroke-linejoin="round" fill="none"/><path d="M-416.85 153.42h-4.94v-2.57h4.95zM-416.85 310.85h-4.94v-2.56h4.95z" stroke="#635dff" stroke-width=".05" fill="#635dff"/><path d="M-1457.17 349.83c47.08 0 85.24 38.17 85.24 85.25 0 47.07-38.16 85.24-85.24 85.24h-269.52c-47.06 0-85.23-38.17-85.23-85.25 0-47.07 38.17-85.24 85.24-85.24z" stroke="#5e5e5e" stroke-width="3" fill="#1e5d62"/><use xlink:href="#k" transform="matrix(1,0,0,1,-1806.9266447958503,354.8347167115587) translate(83.36033333333349 88.10794444444437)"/><path d="M-1366.42 435l9.8-.2 13.17-.84 12.65-1.33 12.22-1.8 11.85-2.26 11.56-2.7 11.3-3.17 11.14-3.62 11-4.1 10.94-4.6 10.92-5.13 10.96-5.72 11.05-6.4 11.2-7.1 11.47-7.97 11.78-8.95 12.22-10.1 12.8-11.53 13.56-13.3 14.6-15.56 16.06-18.62 18.27-23.1 22.1-30.48 31.38-47.45L-922.62 7.5l22.1-30.48 18.28-23.1 16.07-18.62 14.6-15.56 13.56-13.3 12.78-11.52L-813-115.2l11.78-8.95 11.46-7.96 11.2-7.13 11.06-6.38 10.96-5.74 10.9-5.14 10.94-4.6 11-4.1 11.14-3.6 11.3-3.16 11.57-2.7 11.86-2.28 12.22-1.8 12.65-1.33.55-.03" stroke="#00c2a8" stroke-width="8" stroke-linejoin="round" fill="none"/><path d="M-1366.23 438.96l-4.3.1.1-3.98-.1-3.98 4.13-.1z" stroke="#00c2a8" stroke-width=".05" fill="#00c2a8"/><path d="M-633.84-180.84l-12.6 8.16-.6-15.26z" stroke="#00c2a8" stroke-width="8" fill="#fff"/><path d="M-1366.42 435l20.86-.44 22.88-1.43 21.26-2.23 19.9-2.94 18.82-3.58 17.92-4.2 17.22-4.8 16.7-5.43 16.3-6.07 16.12-6.78 16.1-7.58 16.3-8.52 16.8-9.7 17.68-11.24 19.28-13.4 22.32-16.98 30-24.9 119.26-104.54 22.32-16.97 19.28-13.4 17.68-11.24 16.8-9.7 16.3-8.53 16.1-7.58 16.12-6.77 16.32-6.07 16.68-5.42 17.22-4.8 17.92-4.2 18.8-3.6 19.92-2.93 21.26-2.23 21.3-1.34" stroke="#00c2a8" stroke-width="8" stroke-linejoin="round" fill="none"/><path d="M-1366.23 438.96l-4.3.1.1-3.98-.1-3.98 4.13-.08z" stroke="#00c2a8" stroke-width=".05" fill="#00c2a8"/><path d="M-628.1 95.03l-12.72 7.93-.35-15.27z" stroke="#00c2a8" stroke-width="8" fill="#fff"/><path d="M-1366.4 435l120.9-2.36 88.72-5.5 77.28-8.13 293.38-40.2 88.72-5.5 98.48-1.93" stroke="#00c2a8" stroke-width="8" stroke-linejoin="round" fill="none"/><path d="M-1366.23 438.97l-4.3.08.1-3.97-.1-3.98 4.14-.08z" stroke="#00c2a8" stroke-width=".05" fill="#00c2a8"/><path d="M-580.33 371l-12.76 7.9-.3-15.27z" stroke="#00c2a8" stroke-width="8" fill="#fff"/><path d="M-1366.42 435.16l26.94.55 27.58 1.74 24.93 2.6 22.86 3.38 21.24 4.05 20.03 4.7 19.15 5.34 18.62 6.06 18.44 6.86 18.75 7.88 19.73 9.3 22.08 11.56 28.54 16.53 115.22 71.1 22.07 11.55 19.74 9.3 18.75 7.87 18.45 6.87 18.62 6.03 19.15 5.35 20.03 4.7 21.25 4.04 22.86 3.38 24.94 2.6 27.57 1.73 4.5.1" stroke="#00c2a8" stroke-width="8" stroke-linejoin="round" fill="none"/><path d="M-1366.23 431.2l-.17 7.93-4.14-.08.1-3.97-.08-3.98z" stroke="#00c2a8" stroke-width=".05" fill="#00c2a8"/><path d="M-705.8 650.7l-13.06 7.38.32-15.27z" stroke="#00c2a8" stroke-width="8" fill="#fff"/><path d="M-1366.4 435.16l15.78.33 18.63 1.15 17.64 1.86 16.8 2.48 16.1 3.07 15.52 3.64 15.06 4.2 14.7 4.77 14.4 5.37 14.26 6 14.17 6.65 14.2 7.42 14.32 8.27 14.6 9.26 15.03 10.45 15.7 11.93 16.65 13.8 18.14 16.34 20.54 20.16 25.14 26.83 39.6 46.15 101.1 121.5 25.13 26.83 20.56 20.15 18.14 16.35 16.67 13.8 15.7 11.9 15.02 10.46 14.6 9.26 14.3 8.28 14.2 7.42 14.17 6.67 14.25 6 14.43 5.35 14.7 4.77 15.05 4.2 15.52 3.65 16.1 3.07 16.8 2.48 17.63 1.85 12 .75" stroke="#00c2a8" stroke-width="8" stroke-linejoin="round" fill="none"/><path d="M-1366.23 431.2l-.16 7.93-4.14-.08.1-3.97-.08-3.98z" stroke="#00c2a8" stroke-width=".05" fill="#00c2a8"/><path d="M-574.77 930.63l-13.14 7.23.46-15.26z" stroke="#00c2a8" stroke-width="8" fill="#fff"/><path d="M-1366.42 435.16l6.38.13 10.02.62 9.73 1.02 9.5 1.4 9.27 1.77 9.12 2.15 9 2.52 8.92 2.9 8.88 3.3 8.87 3.73 8.9 4.2 8.98 4.7 9.1 5.24 9.24 5.87 9.45 6.6 9.73 7.38 10.06 8.32 10.47 9.44 11 10.76 11.6 12.38 12.43 14.4 13.45 17 14.83 20.43 16.78 25.3 19.8 32.74 25.44 46.45 46.87 95.4 85.8 178.77 25.46 46.45 19.8 32.75 16.76 25.3 14.83 20.42 13.45 16.98 12.42 14.4 11.62 12.38 10.98 10.77 10.47 9.43 10.05 8.33 9.73 7.37 9.46 6.58 9.25 5.87 9.08 5.26 8.98 4.7 8.9 4.18 8.88 3.73 8.87 3.3 8.93 2.9 9 2.5 9.13 2.15 9.28 1.77 9.48 1.4 3.74.4" stroke="#00c2a8" stroke-width="8" stroke-linejoin="round" fill="none"/><path d="M-1366.23 431.2l-.17 7.94-4.14-.1.1-3.96-.08-3.98z" stroke="#00c2a8" stroke-width=".05" fill="#00c2a8"/><path d="M-655.7 1210.45l-13.3 6.9.85-15.24z" stroke="#00c2a8" stroke-width="8" fill="#fff"/><path d="M-1366.42 435.16l2.47.05 6.32.4 6.2.66 6.12.9 6.04 1.16 6 1.4 6 1.68 6 1.95 6 2.24 6.07 2.54 6.15 2.9 6.23 3.25 6.37 3.66 6.5 4.14 6.72 4.66 6.92 5.26 7.2 5.96 7.5 6.77 7.9 7.73 8.32 8.87 8.85 10.27 9.48 11.98 10.25 14.12 11.2 16.88 12.4 20.48 13.93 25.4 16.1 32.5 19.28 43.45 24.97 63.34 41.76 121.2 106.57 325.24 24.97 63.35 19.28 43.45 16.1 32.48 13.93 25.4 12.4 20.5 11.2 16.87 10.24 14.12 9.48 11.98 8.86 10.27 8.32 8.88 7.9 7.72 7.5 6.77 7.2 5.95 6.93 5.26 6.7 4.67 6.52 4.14 6.37 3.68 6.22 3.27 6.14 2.9 6.06 2.54 6.02 2.22 6 1.95 5.98 1.67 6 1.4 4.86.94" stroke="#00c2a8" stroke-width="8" stroke-linejoin="round" fill="none"/><path d="M-1366.23 431.2l-.17 7.94-4.14-.1.1-3.96-.08-3.98z" stroke="#00c2a8" stroke-width=".05" fill="#00c2a8"/><path d="M-714.93 1490.2l-13.53 6.48 1.34-15.2z" stroke="#00c2a8" stroke-width="8" fill="#fff"/><path d="M-1366.42 435.16h.2l4.14.26 4.1.43 4.05.6 4.05.78 4.04.94 4.05 1.14 4.1 1.33 4.12 1.54 4.18 1.76 4.26 2 4.35 2.28 4.48 2.6 4.6 2.9 4.76 3.32 4.95 3.76 5.16 4.28 5.42 4.9 5.72 5.6 6.07 6.46 6.48 7.52 6.96 8.78 7.54 10.38 8.22 12.4 9.06 14.97 10.1 18.4 11.4 23.04 13.14 29.6 15.5 39.3 19.07 54.95 25.3 84.3 43.6 172.46 109.66 462.24 25.28 84.3 19.06 54.95 15.5 39.3 13.14 29.57 11.4 23.04 10.1 18.4 9.07 15 8.22 12.38 7.53 10.38 6.96 8.8 6.48 7.5 6.06 6.47 5.72 5.6 5.43 4.9 5.17 4.27 4.95 3.76 4.76 3.3 4.6 2.93 4.47 2.57 4.35 2.28 4.26 2 4.2 1.77 4.12 1.53 4.08 1.33 2.5.7" stroke="#00c2a8" stroke-width="8" stroke-linejoin="round" fill="none"/><path d="M-1366.23 431.2l-.17 7.94-4.14-.1.1-3.96-.08-3.98z" stroke="#00c2a8" stroke-width=".05" fill="#00c2a8"/><path d="M-777.85 1769.86l-13.82 5.83 2.04-15.14z" stroke="#00c2a8" stroke-width="8" fill="#fff"/><path d="M-1366.42 435.16l1.03.02 4.97.3 4.9.53 4.85.73 4.84.92 4.84 1.14 4.86 1.34 4.88 1.6 4.94 1.83 5 2.1 5.1 2.4 5.23 2.73 5.36 3.1 5.5 3.5 5.72 3.97 5.93 4.5 6.2 5.13 6.5 5.86 6.86 6.72 7.28 7.75 7.76 9 8.34 10.54 9.03 12.45 9.86 14.85 10.86 17.96 12.1 22.07 13.68 27.62 15.75 35.46 18.58 47.1 22.83 65.78 30.18 100.63 51.22 202.33 135.62 574.08 30.2 100.64 22.8 65.78 18.58 47.1 15.75 35.45 13.7 27.63 12.1 22.06 10.85 17.96 9.86 14.86 9.03 12.44 8.35 10.54 7.77 9 7.27 7.76 6.85 6.72 6.5 5.85 6.2 5.12 5.92 4.5 5.7 3.98 5.52 3.5 5.35 3.1 5.2 2.72 5.1 2.4 5.02 2.1 4.94 1.84 4.9 1.6 4.85 1.35 3.2.76" stroke="#00c2a8" stroke-width="8" stroke-linejoin="round" fill="none"/><path d="M-1366.23 431.2l-.17 7.94-4.14-.1.1-3.96-.08-3.98z" stroke="#00c2a8" stroke-width=".05" fill="#00c2a8"/><path d="M-655.93 2050.04l-13.7 6.14 1.73-15.18z" stroke="#00c2a8" stroke-width="8" fill="#fff"/><path d="M-1366.42 435.18l3.1.2 3.48.36 3.48.5 3.5.68 3.48.82 3.52.98 3.56 1.16 3.6 1.34 3.68 1.55 3.75 1.77 3.86 2 3.96 2.3 4.1 2.6 4.27 2.98 4.45 3.38 4.67 3.86 4.9 4.44 5.22 5.1 5.55 5.92 5.94 6.9 6.42 8.1 6.96 9.6 7.63 11.5 8.44 13.94 9.42 17.16 10.65 21.5 12.2 27.47 14.26 36.13 17.1 49.26 21.26 70.8 28.3 111.13 45.68 218.28 154.54 826.47 28.32 111.15 21.26 70.8 17.1 49.26 14.25 36.13 12.2 27.5 10.65 21.48 9.42 17.16 8.43 13.95 7.63 11.5 6.97 9.6 6.4 8.1 5.95 6.9 5.55 5.9 5.2 5.1 4.93 4.44 4.66 3.86 4.45 3.38 4.26 2.97 4.1 2.6 3.98 2.3 3.85 2.02 3.74 1.77 3.68 1.54 3.6 1.34 2.1.7" stroke="#00c2a8" stroke-width="8" stroke-linejoin="round" fill="none"/><path d="M-1366.23 431.2l-.17 7.94-4.14-.1.1-3.96-.08-3.98z" stroke="#00c2a8" stroke-width=".05" fill="#00c2a8"/><path d="M-720.5 2329.7l-13.96 5.52 2.4-15.08z" stroke="#00c2a8" stroke-width="8" fill="#fff"/><path d="M-1818.87 85.28c29.13 0 52.74 23.62 52.74 52.75s-23.6 52.74-52.74 52.74h-190.1c-29.12 0-52.73-23.6-52.73-52.74 0-29.13 23.6-52.75 52.74-52.75z" stroke="#5e5e5e" stroke-width="3" fill="#635dff"/><use xlink:href="#l" transform="matrix(1,0,0,1,-2056.7023152020984,90.28244923907641) translate(69.99833333333335 53.50666666666667)"/><path d="M-1885.92 695.7c29.13 0 52.75 23.6 52.75 52.74 0 29.13-23.62 52.74-52.75 52.74H-2076c-29.13 0-52.75-23.6-52.75-52.74 0-29.13 23.62-52.75 52.75-52.75z" stroke="#5e5e5e" stroke-width="3" fill="#e81313"/><use xlink:href="#m" transform="matrix(1,0,0,1,-2123.746249892522,700.6922601845955) translate(61.571666666666665 53.50666666666667)"/><path d="M-2057.1 390.5c29.13 0 52.75 23.6 52.75 52.73 0 29.13-23.62 52.75-52.75 52.75h-190.08c-29.13 0-52.74-23.62-52.74-52.75s23.6-52.74 52.74-52.74z" stroke="#5e5e5e" stroke-width="3" fill="#008573"/><use xlink:href="#n" transform="matrix(1,0,0,1,-2294.924463127291,395.48735471183596) translate(52.23833333333332 53.50666666666667)"/><path d="M-1760.63 138.1l3.22.08 6.97.44 6.78.7 6.58.98 6.42 1.22 6.26 1.47 6.13 1.7 6 1.95 5.88 2.2 5.8 2.42 5.68 2.67 5.6 2.93 5.5 3.2 5.45 3.44 5.37 3.74 5.3 4.02 5.23 4.33 5.16 4.64 5.08 4.98 5 5.33 4.92 5.7 4.82 6.1 4.7 6.47 4.6 6.9 4.43 7.33 4.27 7.77 4.08 8.2 3.85 8.67 3.6 9.1 3.32 9.52 3 9.94 2.65 10.33 2.27 10.67 1.85 11 1.42 11.23.2 2.42" stroke="#00c2a8" stroke-width="8" stroke-linejoin="round" fill="none"/><path d="M-1760.44 134.14l-.17 7.95-4.22-.1.2-3.96-.1-3-.1-1z" stroke="#00c2a8" stroke-width=".05" fill="#00c2a8"/><path d="M-1592.3 340.5l-8.28-12.53 15.26-.76z" stroke="#00c2a8" stroke-width="8" fill="#fff"/><path d="M-1998.85 443.27l158 1.53 1.4-.08" stroke="#00c2a8" stroke-width="8" stroke-linejoin="round" fill="none"/><path d="M-1998.7 439.3l-.08 7.95-4.26-.05.2-3.95-.1-3-.1-1z" stroke="#00c2a8" stroke-width=".05" fill="#00c2a8"/><path d="M-1820.87 443.67l-12.46 8.35-.86-15.24z" stroke="#00c2a8" stroke-width="8" fill="#fff"/><path d="M-1827.67 748.35l7.48-.15 11.3-.7 11.12-1.18 10.9-1.6 10.72-2.05 10.48-2.46 10.26-2.86 10-3.25 9.76-3.64 9.5-3.98 9.2-4.34 8.92-4.66 8.62-4.98 8.32-5.27 8-5.57 7.68-5.83 7.36-6.1 7.03-6.32 6.7-6.55 6.37-6.78 6.03-6.98 5.7-7.2 5.35-7.37 5.02-7.55 4.68-7.73 4.34-7.9 4-8.08 3.68-8.24 3.33-8.4 2.98-8.58 2.65-8.75 2.3-8.93 1.92-9.1 1.57-9.3.97-7.76" stroke="#00c2a8" stroke-width="8" stroke-linejoin="round" fill="none"/><path d="M-1827.48 752.33l-4.38.1.2-3.98-.1-3-.1-1 4.2-.07z" stroke="#00c2a8" stroke-width=".05" fill="#00c2a8"/><path d="M-1592.37 529.66l6.9 13.32-15.26-.86z" stroke="#00c2a8" stroke-width="8" fill="#fff"/><path d="M1363.24 150.85c29.13 0 52.75 23.62 52.75 52.75s-23.63 52.74-52.76 52.74h-190.08c-29.13 0-52.75-23.6-52.75-52.74 0-29.13 23.63-52.75 52.76-52.75z" stroke="#5e5e5e" stroke-width="3" fill="#635dff"/><use xlink:href="#l" transform="matrix(1,0,0,1,1125.4133460163123,155.85296604303426) translate(69.99833333333335 53.50666666666667)"/><path d="M1640.14 382.33c29.13 0 52.74 23.62 52.74 52.75s-23.6 52.74-52.74 52.74h-190.1c-29.12 0-52.73-23.62-52.73-52.75s23.62-52.74 52.75-52.74z" stroke="#5e5e5e" stroke-width="3" fill="#008573"/><use xlink:href="#n" transform="matrix(1,0,0,1,1402.3087461559383,387.3301382210378) translate(52.23833333333332 53.50666666666667)"/><path d="M903.5 349.83c47.1 0 85.25 38.17 85.25 85.25 0 47.07-38.16 85.24-85.24 85.24H634c-47.1 0-85.25-38.17-85.25-85.25 0-47.07 38.16-85.24 85.24-85.24z" stroke="#5e5e5e" stroke-width="3" fill="#1e5d62"/><use xlink:href="#o" transform="matrix(1,0,0,1,553.75,354.8347167115587) translate(11.12022222222249 88.10794444444437)"/><path d="M1114.9 203.64l-113.13 1.2-37.57 2.3-26.83 2.8L916.5 213l-16.96 3.23-14.14 3.3-12.04 3.36-10.4 3.37-9.1 3.38-8.03 3.37-7.15 3.36-6.42 3.35-5.8 3.35-5.26 3.34-4.8 3.34-4.42 3.35-4.06 3.36-3.75 3.38-3.48 3.4-3.25 3.45-3 3.48-2.8 3.54-2.64 3.6-2.44 3.7-2.28 3.77-2.14 3.88-2 4-1.83 4.15-1.7 4.3-1.56 4.5-1.4 4.68-1.28 4.93-1.1 5.2L771 322" stroke="#fc9432" stroke-width="8" stroke-linejoin="round" fill="none"/><path d="M1118.9 203.58l.1 3 .1 1-4.25.04-.1-7.95 4.35-.05z" stroke="#fc9432" stroke-width=".05" fill="#fc9432"/><path d="M769.42 340.5l-6.5-13.5 15.2 1.3z" stroke="#fc9432" stroke-width="8" fill="#fff"/><path d="M1391.8 435.07h-375.1" stroke="#fc9432" stroke-width="8" stroke-linejoin="round" fill="none"/><path d="M1395.8 435.06l.1 3 .1 1h-4.3v-7.96h4.3z" stroke="#fc9432" stroke-width=".05" fill="#fc9432"/><path d="M998.1 435.07l12.92-7.63v15.27z" stroke="#fc9432" stroke-width="8" fill="#fff"/><path d="M543.24 435l-21.87-.46-23.77-1.5-22.06-2.3-20.63-3.05-19.46-3.72-18.54-4.34-17.8-4.97-17.25-5.6-16.87-6.28-16.67-7.02-16.65-7.84-16.9-8.84-17.47-10.1-18.5-11.74-20.34-14.16-24.07-18.3-35.13-29.2-104.77-90.48-24.06-18.3-20.34-14.16-18.5-11.74-17.46-10.1L-2.8 142l-16.67-7.86-16.67-7-16.87-6.28-17.25-5.6-17.8-4.97-18.55-4.36-19.47-3.7-20.63-3.05-22.05-2.33-23.2-1.45" stroke="#fc9432" stroke-width="8" stroke-linejoin="round" fill="none"/><path d="M547.37 431.1l-.12 3.97.1 3.98-4.3-.1.17-7.93z" stroke="#fc9432" stroke-width=".05" fill="#fc9432"/><path d="M-210.55 95.02l13.07-7.36-.33 15.27z" stroke="#fc9432" stroke-width="8" fill="#fff"/><path d="M543.24 435l-125.34-2.44-91.55-5.68-80.4-8.46-291.22-39.37-91.55-5.68-102.9-2" stroke="#fc9432" stroke-width="8" stroke-linejoin="round" fill="none"/><path d="M547.37 431.1l-.12 3.97.1 3.98-4.3-.08.16-7.95z" stroke="#fc9432" stroke-width=".05" fill="#fc9432"/><path d="M-258.3 371l13.05-7.37-.3 15.27z" stroke="#fc9432" stroke-width="8" fill="#fff"/><path d="M543.24 435.16l-28.34.58-28.74 1.8-25.94 2.7-23.76 3.52-22.05 4.2-20.77 4.87-19.87 5.55-19.34 6.28-19.22 7.15-19.6 8.26-20.85 9.8-23.8 12.48-33.24 19.28-102.1 62-23.8 12.45-20.84 9.8-19.62 8.26-19.2 7.15-19.35 6.3-19.9 5.53L-7.85 638l-22.06 4.2-23.75 3.5-25.94 2.73-28.76 1.8-5.9.13" stroke="#fc9432" stroke-width="8" stroke-linejoin="round" fill="none"/><path d="M547.25 435.07l.1 3.98-4.13.08-.16-7.94 4.3-.1z" stroke="#fc9432" stroke-width=".05" fill="#fc9432"/><path d="M-132.85 650.7l12.75-7.9.32 15.28z" stroke="#fc9432" stroke-width="8" fill="#fff"/><path d="M543.24 435.16l-16.56.34-19.3 1.2-18.27 1.93-17.38 2.56-16.65 3.17-16.04 3.76-15.55 4.34-15.16 4.93-14.88 5.53-14.7 6.18-14.6 6.9-14.64 7.64-14.8 8.54-15.06 9.57-15.55 10.8-16.27 12.36-17.32 14.35-18.96 17.1-21.74 21.32-27.34 29.2-56 65.58-73.4 86.64-27.34 29.18L24 809.6 5 826.7l-17.33 14.34-16.27 12.35-15.54 10.8-15.08 9.57-14.8 8.54-14.63 7.66-14.62 6.88-14.7 6.18-14.87 5.53-15.16 4.93-15.55 4.34-16.05 3.76-16.65 3.18-17.38 2.56-18.26 1.92-13.44.84" stroke="#fc9432" stroke-width="8" stroke-linejoin="round" fill="none"/><path d="M547.25 435.07l.1 3.98-4.13.08-.17-7.94 4.32-.1z" stroke="#fc9432" stroke-width=".05" fill="#fc9432"/><path d="M-263.87 930.64l12.68-8.02.47 15.27z" stroke="#fc9432" stroke-width="8" fill="#fff"/><path d="M543.24 435.16l-6.82.14-10.45.66-10.13 1.06-9.86 1.46-9.65 1.84-9.48 2.22-9.35 2.6-9.26 3.02-9.2 3.43-9.2 3.86-9.24 4.34-9.3 4.87-9.4 5.43-9.6 6.08-9.78 6.8-10.07 7.66-10.4 8.6-10.85 9.78-11.37 11.14L347.8 533l-12.88 14.92-13.97 17.65-15.45 21.3-17.57 26.5L266.98 648l-27.7 50.6-149.8 299.32-20.95 34.67-17.57 26.5-15.45 21.3-13.97 17.64-12.88 14.93-12.03 12.83-11.37 11.14-10.84 9.77-10.4 8.63-10.07 7.64-9.8 6.8-9.56 6.1-9.42 5.43-9.3 4.86-9.23 4.35-9.2 3.88-9.2 3.42-9.27 3-9.35 2.62-9.48 2.22-9.65 1.84-9.86 1.46-5 .53" stroke="#fc9432" stroke-width="8" stroke-linejoin="round" fill="none"/><path d="M547.25 435.07l.1 3.98-4.13.08-.17-7.94 4.32-.1z" stroke="#fc9432" stroke-width=".05" fill="#fc9432"/><path d="M-182.95 1210.47l12.48-8.32.82 15.25z" stroke="#fc9432" stroke-width="8" fill="#fff"/><path d="M543.24 435.16l-2.77.06-6.6.4-6.5.7-6.4.94-6.3 1.2-6.3 1.48-6.23 1.74-6.25 2.03-6.28 2.35-6.32 2.65-6.4 3-6.5 3.4-6.6 3.83-6.78 4.3-6.97 4.85-7.2 5.47-7.48 6.2-7.8 7.02-8.2 8.02-8.63 9.2-9.2 10.66-9.84 12.44-10.64 14.66-11.63 17.53-12.88 21.3-14.53 26.46-16.8 33.95-20.32 45.76-26.77 67.94-51.77 150.94-88.78 265.64-26.77 67.93-20.3 45.76-16.8 33.95-14.54 26.48-12.88 21.3-11.63 17.53-10.64 14.67-9.83 12.44-9.2 10.66-8.64 9.22-8.2 8.02-7.8 7.03-7.46 6.2-7.2 5.46-6.98 4.84-6.78 4.3-6.62 3.83-6.5 3.4-6.38 3-6.32 2.66-6.27 2.33-6.25 2.03-6.25 1.74-6.27 1.47-6.26 1.2" stroke="#fc9432" stroke-width="8" stroke-linejoin="round" fill="none"/><path d="M547.25 435.07l.1 3.98-4.13.08-.17-7.94 4.32-.1z" stroke="#fc9432" stroke-width=".05" fill="#fc9432"/><path d="M-123.7 1490.24l12.23-8.68 1.26 15.22z" stroke="#fc9432" stroke-width="8" fill="#fff"/><path d="M543.24 435.16h-.42l-4.35.28-4.3.45-4.26.62-4.24.8-4.24 1-4.25 1.2-4.28 1.4-4.34 1.6-4.38 1.84-4.46 2.1-4.56 2.4-4.67 2.7-4.82 3.04-4.98 3.46-5.18 3.93-5.4 4.46-5.66 5.1-5.97 5.86-6.34 6.75-6.76 7.83-7.25 9.17-7.85 10.8-8.57 12.93-9.44 15.6-10.53 19.18-11.9 24.02-13.7 30.87-16.23 41.1-20.04 57.8-26.97 89.93-52.24 207.46-94.95 391.72-26.97 89.94-20.04 57.78-16.23 41.1-13.7 30.9-11.9 24-10.52 19.18-9.43 15.6-8.57 12.92-7.85 10.82-7.26 9.16-6.75 7.83-6.33 6.76-5.98 5.86-5.67 5.1-5.4 4.47-5.17 3.92-4.98 3.46-4.8 3.06-4.7 2.7-4.55 2.38-4.45 2.1-4.4 1.85-4.3 1.6-4.3 1.4-3.9 1.1" stroke="#fc9432" stroke-width="8" stroke-linejoin="round" fill="none"/><path d="M547.25 435.07l.1 3.98-4.13.08-.17-7.94 4.32-.1z" stroke="#fc9432" stroke-width=".05" fill="#fc9432"/><path d="M-60.78 1769.9l11.84-9.2 1.94 15.14z" stroke="#fc9432" stroke-width="8" fill="#fff"/><path d="M543.25 435.16l-.94.02-4.76.3-4.65.5-4.54.65-4.44.85-4.37 1.03-4.3 1.2-4.3 1.4-4.24 1.58-4.23 1.8-4.26 2-4.27 2.23-4.32 2.5-4.37 2.78-4.45 3.1-4.55 3.46-4.68 3.86-4.8 4.34-5 4.88-5.17 5.52-5.4 6.28-5.7 7.18-6.02 8.3-6.4 9.65-6.88 11.36-7.44 13.57-8.14 16.42-9.02 20.3-10.2 25.8-11.8 34.05-14.35 47.72-19.18 75.3-103.86 509.77-36.6 146.38-36 122.18-33.42 98.08-30.1 77.54-26.77 61.22-23.7 48.6-21.06 38.9-18.77 31.46-16.83 25.7-15.18 21.17-13.78 17.62-12.6 14.76-11.55 12.48-10.7 10.6-9.93 9.06-9.28 7.78-8.72 6.7-8.23 5.8-7.8 5.02-7.44 4.35-7.1 3.78-6.83 3.26-6.6 2.8-6.36 2.42-6.2 2.05-6.03 1.73-5.9 1.42-2.94.58" stroke="#fc9432" stroke-width="8" stroke-linejoin="round" fill="none"/><path d="M547.25 435.07l.1 3.98-4.13.08-.16-7.94 4.3-.1z" stroke="#fc9432" stroke-width=".05" fill="#fc9432"/><path d="M-182.7 2050.14l12.1-8.88 1.5 15.2z" stroke="#fc9432" stroke-width="8" fill="#fff"/><path d="M543.25 435.18l-3.15.2-3.46.36-3.4.5-3.35.64-3.33.78-3.3.92-3.3 1.07-3.3 1.23-3.3 1.4-3.35 1.57-3.38 1.76-3.44 2-3.5 2.23-3.6 2.5-3.7 2.8-3.82 3.17-3.96 3.56-4.13 4.04-4.32 4.6-4.55 5.28-4.8 6.07-5.13 7.05-5.48 8.27-5.92 9.8-6.45 11.73-7.08 14.3-7.88 17.72-8.9 22.5-10.2 29.42-12.1 40.2-15 58.85-20.8 98.86-96.54 593.98-45.42 229-41.45 171.26-35.5 123.72-29.83 89.64-25.08 66-21.28 49.6-18.22 37.98-15.78 29.65-13.8 23.5-12.23 18.93-10.9 15.44-9.82 12.72-8.9 10.6-8.14 8.9-7.5 7.52-6.93 6.4-6.45 5.5-6.05 4.72-5.7 4.08-5.4 3.53-5.14 3.05-4.9 2.65-4.72 2.3-4.53 1.97-4.38 1.7-4.27 1.44-2.84.83" stroke="#fc9432" stroke-width="8" stroke-linejoin="round" fill="none"/><path d="M547.25 435.07l.1 3.98-4.12.08-.17-7.94 4.3-.1z" stroke="#fc9432" stroke-width=".05" fill="#fc9432"/><path d="M-118.1 2329.8l11.7-9.37 2.15 15.12z" stroke="#fc9432" stroke-width="8" fill="#fff"/><path d="M1215.76 1732.68c44.2 0 80.05 35.84 80.05 80.05 0 44.2-35.83 80.05-80.04 80.05h-388.1c-44.2 0-80.05-35.84-80.05-80.05 0-44.2 35.85-80.05 80.06-80.05z" stroke="#5e5e5e" stroke-width="3" fill="#1e5d62"/><use xlink:href="#p" transform="matrix(1,0,0,1,752.6045162590103,1737.6781553817268) translate(39.187000000000246 86.23294444444437)"/><path d="M742.1 1812.82l-1.6.03-5.86.37-6.13.64-6.44.96-6.84 1.3-7.27 1.7-7.78 2.2-8.38 2.7-9.1 3.4-9.9 4.17-10.92 5.13-12.12 6.34-13.58 7.86-15.42 9.8-17.75 12.34-20.74 15.8-24.8 20.54-30.52 27.53-39.13 38.4-54.16 57.87-93.72 109.24-240.2 290.78L63 2471.17l-24.43 24-17.92 16.16-.33.3-14.23 11.74-14.23 10.78-14.2 9.85-14.14 8.97-14.07 8.1-13.97 7.3-13.85 6.5-13.7 5.74-13.52 5.03-13.34 4.32-13.13 3.65-12.9 3-12.63 2.42-12.37 1.8-12.1 1.27-11.8.73-11.47.23-11.17-.24-10.84-.7-10.53-1.1-10.18-1.52-9.85-1.88-9.5-2.24-9.2-2.57-8.84-2.87-8.5-3.18-8.2-3.45-7.9-3.72-7.58-3.97-7.28-4.2-7-4.45-6.7-4.67-6.42-4.88-6.15-5.1-5.88-5.3-5.64-5.53-5.37-5.73-5.14-5.94-4.87-6.16-4.64-6.4-4.4-6.6-4.14-6.86-3.9-7.1-3.65-7.38-3.4-7.66-3.13-7.94-2.87-8.27-2.6-8.6-2.28-8.96-2-9.35-1.63-9.77-1.28-10.23-.1-1.18" stroke="#1071e5" stroke-width="8" stroke-linejoin="round" fill="none"/><path d="M746.1 1812.7v.82l.14 3.18-4.16.1-.17-7.96 4.33-.1z" stroke="#1071e5" stroke-width=".05" fill="#1071e5"/><path d="M-418.93 2398.78l8.26 12.52-15.25.75z" stroke="#1071e5" stroke-width="8" fill="#fff"/><path d="M742.1 1812.65l-177.55-3.35-125.86-7.88-325.72-27.1-155.1-2.9" stroke="#1071e5" stroke-width="8" stroke-linejoin="round" fill="none"/><path d="M746.23 1808.76l-.13 3.95v.82l.14 3.2-4.33-.1.17-7.94z" stroke="#1071e5" stroke-width=".05" fill="#1071e5"/><path d="M-60.72 1771.06l13.05-7.4-.28 15.27z" stroke="#1071e5" stroke-width="8" fill="#fff"/><path d="M742.1 1812.65l-31.6-.65-32.17-2.02-29.4-3.08-27.2-4-25.42-4.85-24.04-5.64-23-6.4-22.28-7.25-21.87-8.13-21.82-9.18-22.24-10.48-23.32-12.2-25.54-14.76-30.58-19.45-51.76-36.24-96.87-69.22-30.58-19.45-25.56-14.77-23.3-12.2-22.25-10.47-21.84-9.2-21.88-8.12-22.27-7.24-23-6.42-24.04-5.64-25.43-4.84-27.2-4-29.4-3.1-32.15-2-9.17-.2" stroke="#1071e5" stroke-width="8" stroke-linejoin="round" fill="none"/><path d="M746.23 1808.76l-.13 3.95v.82l.14 3.2-4.33-.1.17-7.95z" stroke="#1071e5" stroke-width=".05" fill="#1071e5"/><path d="M-123.68 1491.06l13.06-7.37-.3 15.26z" stroke="#1071e5" stroke-width="8" fill="#fff"/><path d="M742.1 1812.65l-18.2-.38-20.95-1.3-19.86-2.1-18.98-2.8-18.2-3.47-17.6-4.12-17.07-4.77-16.68-5.4-16.4-6.1-16.2-6.82-16.1-7.58-16.14-8.44-16.28-9.4-16.57-10.53-17.02-11.83-17.7-13.44-18.68-15.47-20.14-18.16-22.4-21.95-26.28-28.06-35.1-40.78-158.9-196.7-26.3-28.03-22.4-21.95-20.13-18.15-18.68-15.47-17.7-13.44-17.02-11.84-16.57-10.52-16.28-9.4-16.14-8.44-16.12-7.58-16.2-6.82-16.4-6.1-16.67-5.4-17.08-4.78-17.58-4.12-18.22-3.47-18.96-2.8-19.87-2.1-16.7-1.04" stroke="#1071e5" stroke-width="8" stroke-linejoin="round" fill="none"/><path d="M746.23 1808.76l-.13 3.95v.82l.14 3.2-4.33-.1.17-7.95z" stroke="#1071e5" stroke-width=".05" fill="#1071e5"/><path d="M-182.94 1211.1l13.1-7.27-.4 15.26z" stroke="#1071e5" stroke-width="8" fill="#fff"/><path d="M742.1 1812.65l-14.04-.3-17.27-1.08-16.63-1.74-16.07-2.38-15.62-2.98-15.24-3.57-14.95-4.18-14.75-4.78-14.57-5.43-14.5-6.08-14.5-6.82-14.54-7.6-14.7-8.5-14.9-9.46-15.22-10.58-15.65-11.9-16.2-13.4-16.96-15.28-17.9-17.54-19.16-20.43-20.9-24.24-23.43-29.6-27.43-37.85-35.34-53.33-79.31-132.9-89.57-150.63-35.33-53.35-27.45-37.85-23.42-29.6-20.9-24.25-19.18-20.43-17.9-17.54-16.95-15.27-16.2-13.42-15.66-11.9-15.23-10.57-14.9-9.47-14.7-8.48-14.54-7.6-14.5-6.83-14.5-6.1-14.57-5.43-14.74-4.78-14.96-4.2-15.24-3.57-15.62-2.97-16.07-2.38-16.6-1.74-8.9-.56" stroke="#1071e5" stroke-width="8" stroke-linejoin="round" fill="none"/><path d="M746.23 1808.76l-.13 3.95v.82l.14 3.2-4.34-.1.17-7.95z" stroke="#1071e5" stroke-width=".05" fill="#1071e5"/><path d="M-263.87 931.15l13.16-7.2-.53 15.27z" stroke="#1071e5" stroke-width="8" fill="#fff"/><path d="M1478.4 1490.78c29.12 0 52.74 23.62 52.74 52.75s-23.62 52.74-52.75 52.74h-190.1c-29.12 0-52.74-23.6-52.74-52.74 0-29.13 23.62-52.75 52.75-52.75z" stroke="#5e5e5e" stroke-width="3" fill="#635dff"/><use xlink:href="#l" transform="matrix(1,0,0,1,1240.5638664487342,1495.7807302746976) translate(69.99833333333335 53.50666666666667)"/><path d="M1478.4 2014.17c29.12 0 52.74 23.62 52.74 52.75s-23.62 52.74-52.75 52.74h-190.1c-29.12 0-52.74-23.6-52.74-52.74 0-29.13 23.62-52.75 52.75-52.75z" stroke="#5e5e5e" stroke-width="3" fill="#e81313"/><use xlink:href="#m" transform="matrix(1,0,0,1,1240.5638664487342,2019.173203907364) translate(61.571666666666665 53.50666666666667)"/><path d="M1744.17 1760c29.13 0 52.74 23.6 52.74 52.73 0 29.13-23.6 52.74-52.73 52.74H1554.1c-29.14 0-52.76-23.6-52.76-52.74 0-29.13 23.62-52.74 52.75-52.74z" stroke="#5e5e5e" stroke-width="3" fill="#008573"/><use xlink:href="#n" transform="matrix(1,0,0,1,1506.3417185235417,1764.985635747457) translate(52.23833333333332 53.50666666666667)"/><path d="M1495.84 1812.73h-172.07" stroke="#1071e5" stroke-width="8" stroke-linejoin="round" fill="none"/><path d="M1499.84 1812.7l.08 3.02.1.98h-4.28v-7.94h4.3z" stroke="#1071e5" stroke-width=".05" fill="#1071e5"/><path d="M1305.17 1812.73l12.9-7.63v15.27z" stroke="#1071e5" stroke-width="8" fill="#fff"/><path d="M1230.06 1543.6l-6.8.15-10.7.67-10.52 1.1-10.35 1.54-10.14 1.93-9.9 2.3-9.62 2.7-9.34 3.03-9.05 3.36-8.72 3.66-8.4 3.95-8.03 4.2-7.7 4.46-7.35 4.66-7 4.86-6.64 5.05-6.3 5.2-5.95 5.37-5.62 5.5-5.3 5.63-4.95 5.76-4.66 5.86-4.34 5.98-4.05 6.1-3.75 6.18-3.47 6.3-3.17 6.42-2.9 6.53-2.63 6.64-2.36 6.77-2.08 6.9-1.8 7.04-1.54 7.2-1.24 7.35-.1.86" stroke="#1071e5" stroke-width="8" stroke-linejoin="round" fill="none"/><path d="M1234.06 1543.5l.08 3.02.1.98-4.2.1-.16-7.96 4.37-.1z" stroke="#1071e5" stroke-width=".05" fill="#1071e5"/><path d="M1022.26 1723.34l-6.7-13.42 15.23 1.08z" stroke="#1071e5" stroke-width="8" fill="#fff"/><path d="M1230.06 2066.83l-7.9-.16-11.77-.74-11.6-1.22-11.37-1.67-11.06-2.1-10.7-2.52-10.34-2.87-9.9-3.2-9.44-3.53-9-3.78-8.52-4-8.06-4.2-7.6-4.4-7.14-4.53-6.7-4.68-6.3-4.77-5.9-4.88-5.5-4.95-5.15-5.04-4.8-5.1-4.46-5.18-4.16-5.24-3.85-5.3-3.57-5.4-3.3-5.43-3.03-5.53-2.78-5.6-2.54-5.7-2.3-5.78-2.05-5.9-1.8-6.03-1.6-6.16-1.33-6.3-.73-4.32" stroke="#1071e5" stroke-width="8" stroke-linejoin="round" fill="none"/><path d="M1234.25 2062.95l-.2 3.95.1 3 .1 1-4.38-.1.17-7.94z" stroke="#1071e5" stroke-width=".05" fill="#1071e5"/><path d="M1022.34 1902.12l8.64 12.26-15.23 1.2z" stroke="#1071e5" stroke-width="8" fill="#fff"/><path d="M-1467.95 1352.8c47.07 0 85.24 38.16 85.24 85.24 0 47.07-38.18 85.24-85.25 85.24h-269.52c-47.08 0-85.24-38.17-85.24-85.24 0-47.08 38.15-85.24 85.23-85.24z" stroke="#5e5e5e" stroke-width="3" fill="#1e5d62"/><use xlink:href="#q" transform="matrix(1,0,0,1,-1817.7123341982808,1357.7957844938778) translate(83.36033333333349 88.10794444444437)"/><path d="M-2146.5 1385.3c29.14 0 52.75 23.6 52.75 52.74 0 29.13-23.6 52.74-52.74 52.74h-190.08c-29.13 0-52.74-23.6-52.74-52.74 0-29.13 23.6-52.75 52.74-52.75z" stroke="#5e5e5e" stroke-width="3" fill="#8c3fb5"/><use xlink:href="#r" transform="matrix(1,0,0,1,-2384.322981597749,1390.2912060033568) translate(15.251666666666646 53.50666666666667)"/><path d="M-2088.24 1438.04h237.57" stroke="#fe7070" stroke-width="8" stroke-linejoin="round" fill="none"/><path d="M-2088.14 1442h-4.3l.2-3.95-.1-3-.1-1h4.3z" stroke="#fe7070" stroke-width=".05" fill="#fe7070"/><path d="M-1832.07 1438.04l-12.9 7.63v-15.27z" stroke="#fe7070" stroke-width="8" fill="#fff"/><path d="M-1377.2 1437.95l5.15-.1 8.87-.56 8.63-.92 8.42-1.24 8.27-1.58 8.14-1.9 8.05-2.26 8-2.6 7.96-2.96 7.96-3.35 8.02-3.8 8.1-4.22 8.2-4.74 8.36-5.3 8.55-5.96 8.8-6.68 9.1-7.54 9.48-8.54 9.94-9.73 10.5-11.2 11.17-12.97 12.06-15.23 13.2-18.18 14.72-22.2 16.95-28.04 20.56-37.5 28.26-57.23 132.6-291.22 20.57-37.5 16.94-28.04 14.73-22.2 13.2-18.2 12.06-15.23 11.18-12.97 10.5-11.18 9.93-9.74 9.48-8.54 9.1-7.53 8.8-6.68 8.56-5.95 8.37-5.3 8.2-4.75 8.1-4.23 8.02-3.78 7.96-3.36 7.97-2.96 8-2.6 8.04-2.25 8.14-1.9 8.28-1.58 8.42-1.25.27-.02" stroke="#fe7070" stroke-width="8" stroke-linejoin="round" fill="none"/><path d="M-1377.02 1441.92l-4.3.1.1-3.98-.08-3.98 4.12-.08z" stroke="#fe7070" stroke-width=".05" fill="#fe7070"/><path d="M-705.78 651.35l-12.42 8.42-.94-15.25z" stroke="#fe7070" stroke-width="8" fill="#fff"/><path d="M-1377.2 1437.95l15.88-.33 18.72-1.17 17.72-1.86 16.9-2.5 16.2-3.1 15.63-3.66 15.17-4.23 14.8-4.8 14.52-5.4 14.36-6.04 14.27-6.72 14.3-7.48 14.44-8.33 14.7-9.34 15.14-10.53 15.77-11.98 16.74-13.86 18.17-16.37 20.48-20.08 24.78-26.45 36.9-42.96 112.05-135.64 24.8-26.43 20.46-20.1 18.17-16.36 16.73-13.85 15.77-11.98 15.13-10.52 14.7-9.33 14.44-8.35 14.3-7.48 14.27-6.72 14.36-6.03 14.53-5.4 14.8-4.8 15.16-4.25 15.63-3.66 16.2-3.08 16.9-2.5 17.72-1.86 12.17-.76" stroke="#fe7070" stroke-width="8" stroke-linejoin="round" fill="none"/><path d="M-1377.02 1441.92l-4.3.1.1-3.98-.08-3.98 4.12-.08z" stroke="#fe7070" stroke-width=".05" fill="#fe7070"/><path d="M-574.77 931.12l-12.67 8.04-.47-15.27z" stroke="#fe7070" stroke-width="8" fill="#fff"/><path d="M-1377.2 1437.95l30.88-.63 30.97-1.94 27.9-2.92 25.55-3.77 23.7-4.52 22.32-5.24 21.36-5.96 20.8-6.76 20.7-7.7 21.18-8.9 22.63-10.67 26.2-13.72 39.15-22.74 97.8-58.8 26.2-13.73 22.64-10.66 21.17-8.9 20.7-7.7 20.8-6.76 21.35-5.96 22.32-5.23 23.7-4.52 25.54-3.76 27.92-2.93 30.97-1.94 8.44-.17" stroke="#fe7070" stroke-width="8" stroke-linejoin="round" fill="none"/><path d="M-1377.02 1441.93l-4.3.08.1-3.96-.08-3.98 4.12-.08z" stroke="#fe7070" stroke-width=".05" fill="#fe7070"/><path d="M-655.7 1211.05l-12.75 7.9-.3-15.27z" stroke="#fe7070" stroke-width="8" fill="#fff"/><path d="M-1377.2 1438.1l103.77 2.03 76.2 4.73 67.13 7.06 239 32.15 76.2 4.73 81.35 1.58" stroke="#fe7070" stroke-width="8" stroke-linejoin="round" fill="none"/><path d="M-1377.02 1434.14l-.16 7.95-4.15-.1.12-3.96-.1-3.98z" stroke="#fe7070" stroke-width=".05" fill="#fe7070"/><path d="M-714.96 1490.74l-13.06 7.4.3-15.28z" stroke="#fe7070" stroke-width="8" fill="#fff"/><path d="M-1377.2 1438.12l12.98.27 15.85.98 14.9 1.56 14.1 2.1 13.44 2.55 12.9 3 12.45 3.5 12.12 3.93 11.87 4.4 11.7 4.93 11.66 5.48 11.68 6.1 11.85 6.85 12.14 7.7 12.67 8.82 13.48 10.23 14.78 12.24 17.1 15.4 22.28 21.9 105.53 110.64 17.1 15.4 14.77 12.25 13.48 10.23 12.66 8.8 12.15 7.72 11.85 6.84 11.68 6.1 11.65 5.48 11.72 4.93 11.86 4.42 12.12 3.93 12.46 3.48 12.9 3.03 13.43 2.56 14.1 2.08 14.9 1.56 6.4.4" stroke="#fe7070" stroke-width="8" stroke-linejoin="round" fill="none"/><path d="M-1377.02 1434.15l-.16 7.94-4.15-.1.12-3.96-.1-3.98z" stroke="#fe7070" stroke-width=".05" fill="#fe7070"/><path d="M-777.92 1770.63l-13.17 7.17.55-15.26z" stroke="#fe7070" stroke-width="8" fill="#fff"/><path d="M-1377.2 1438.12l9.44.2 12.86.8 12.36 1.3 11.93 1.76 11.57 2.2 11.3 2.66 11.05 3.1 10.88 3.52 10.77 4 10.7 4.5 10.67 5.03 10.72 5.6 10.82 6.24 10.97 6.97 11.2 7.8 11.54 8.76 11.95 9.9 12.5 11.27 13.26 13 14.26 15.17 15.64 18.15 17.72 22.4 21.28 29.34 29.36 44.36 124.9 201 21.28 29.35 17.73 22.4 15.64 18.15 14.26 15.18 13.25 13 12.52 11.26 11.95 9.9 11.53 8.75 11.22 7.8 10.97 6.96 10.8 6.26 10.73 5.6 10.67 5.03 10.7 4.5 10.76 4 10.9 3.53 11.05 3.1 11.3 2.63 11.58 2.2 11.93 1.77 12.25 1.3" stroke="#fe7070" stroke-width="8" stroke-linejoin="round" fill="none"/><path d="M-1377.02 1434.15l-.16 7.94-4.15-.1.12-3.96-.1-3.98z" stroke="#fe7070" stroke-width=".05" fill="#fe7070"/><path d="M-655.97 2050.6l-13.22 7.08.65-15.25z" stroke="#fe7070" stroke-width="8" fill="#fff"/><path d="M-1377.2 1438.12l3.74.08 7.54.47 7.36.78 7.23 1.06 7.1 1.37 7.05 1.65 7 1.95 6.95 2.26 6.96 2.6 7 2.94 7.05 3.32 7.14 3.72 7.26 4.2 7.4 4.7 7.62 5.3 7.84 5.94 8.12 6.73 8.46 7.6 8.87 8.7 9.34 9.97 9.95 11.54 10.66 13.48 11.58 15.95 12.72 19.2 14.26 23.57 16.42 29.93 19.8 39.98 26.32 59.4 149.25 375.36 19.8 39.98 16.4 29.92 14.27 23.6 12.73 19.17 11.58 15.95 10.67 13.48 9.95 11.53 9.35 9.96 8.87 8.7 8.46 7.62 8.12 6.72 7.84 5.95 7.6 5.3 7.42 4.7 7.26 4.2 7.14 3.73 7.05 3.32 7 2.94 6.97 2.6 6.96 2.25 7 1.94 7.02 1.65 7.12 1.35 3.52.52" stroke="#fe7070" stroke-width="8" stroke-linejoin="round" fill="none"/><path d="M-1377.02 1434.15l-.16 7.95-4.15-.1.12-3.96-.1-3.98z" stroke="#fe7070" stroke-width=".05" fill="#fe7070"/><path d="M-720.6 2330.35l-13.43 6.66 1.13-15.22z" stroke="#fe7070" stroke-width="8" fill="#fff"/><path d="M-1776.55 1641.16c55.2 0 99.95 44.75 99.95 99.95 0 55.22-44.75 99.96-99.95 99.96h-368.76c-55.2 0-99.96-44.74-99.96-99.94 0-55.2 44.75-99.95 99.95-99.95z" stroke="#5e5e5e" stroke-width="3" fill="#008573"/><use xlink:href="#s" transform="matrix(1,0,0,1,-2240.262358886191,1646.164942473662) translate(51.13462962962963 72.35416666666667)"/><use xlink:href="#t" transform="matrix(1,0,0,1,-2240.262358886191,1646.164942473662) translate(229.94944444444442 72.35416666666667)"/><use xlink:href="#u" transform="matrix(1,0,0,1,-2240.262358886191,1646.164942473662) translate(195.28277777777777 136.35416666666669)"/><path d="M-1671.1 1741.03h.13l3.82-.24 3.54-.38 3.3-.5 3.1-.58 2.92-.68 2.76-.78 2.63-.85 2.52-.93 2.4-1 2.3-1.1 2.24-1.16 2.15-1.25 2.1-1.33 2.04-1.42 2-1.5 1.95-1.63 1.9-1.73 1.9-1.86 1.86-2 1.85-2.13 1.85-2.3 1.82-2.5 1.8-2.75 1.83-3 1.8-3.28 1.8-3.65 1.82-4.06 1.8-4.57 1.8-5.18 1.8-5.93 1.75-6.9 1.73-8.12 1.65-9.8 1.53-12.2 1.33-16 .95-23.46-.23-53.1" stroke="#fe7070" stroke-width="8" stroke-linejoin="round" fill="none"/><path d="M-1670.92 1745l-4.28.1.1-3.97-.03-2.1-.08-1.9 4.12-.07z" stroke="#fe7070" stroke-width=".05" fill="#fe7070"/><path d="M-1594.96 1532.63l7.7 12.88-15.28.08z" stroke="#fe7070" stroke-width="8" fill="#fff"/><defs><path fill="#333" d="M115-3C79 11 28 4 28-45v-112H4v-33h27l15-45h31v45h36v33H77v99c-1 23 16 31 38 25v30" id="v"/><path fill="#333" d="M110-194c64 0 96 36 96 99 0 64-35 99-97 99-61 0-95-36-95-99 0-62 34-99 96-99zm-1 164c35 0 45-28 45-65 0-40-10-65-43-65-34 0-45 26-45 65 0 36 10 65 43 65" id="w"/><path fill="#333" d="M135-194c53 0 70 44 70 98 0 56-19 98-73 100-31 1-45-17-59-34 3 33 2 69 2 105H25l-1-265h48c2 10 0 23 3 31 11-24 29-35 60-35zM114-30c33 0 39-31 40-66 0-38-9-64-40-64-56 0-55 130 0 130" id="x"/><path fill="#333" d="M-4 44V30h207v14H-4" id="y"/><path fill="#333" d="M137-138c1-29-70-34-71-4 15 46 118 7 119 86 1 83-164 76-172 9l43-7c4 19 20 25 44 25 33 8 57-30 24-41C81-84 22-81 20-136c-2-80 154-74 161-7" id="z"/><path fill="#333" d="M85 4C-2 5 27-109 22-190h50c7 57-23 150 33 157 60-5 35-97 40-157h50l1 190h-47c-2-12 1-28-3-38-12 25-28 42-61 42" id="A"/><path fill="#333" d="M88-194c31-1 46 15 58 34l-1-101h50l1 261h-48c-2-10 0-23-3-31C134-8 116 4 84 4 32 4 16-41 15-95c0-56 19-97 73-99zm17 164c33 0 40-30 41-66 1-37-9-64-41-64s-38 30-39 65c0 43 13 65 39 65" id="B"/><path fill="#333" d="M185-48c-13 30-37 53-82 52C43 2 14-33 14-96s30-98 90-98c62 0 83 45 84 108H66c0 31 8 55 39 56 18 0 30-7 34-22zm-45-69c5-46-57-63-70-21-2 6-4 13-4 21h74" id="C"/><path fill="#333" d="M135-194c87-1 58 113 63 194h-50c-7-57 23-157-34-157-59 0-34 97-39 157H25l-1-190h47c2 12-1 28 3 38 12-26 28-41 61-42" id="D"/><g id="a"><use transform="matrix(0.1851851851851852,0,0,0.1851851851851852,0,0)" xlink:href="#v"/><use transform="matrix(0.1851851851851852,0,0,0.1851851851851852,22.037037037037038,0)" xlink:href="#w"/><use transform="matrix(0.1851851851851852,0,0,0.1851851851851852,62.592592592592595,0)" xlink:href="#x"/><use transform="matrix(0.1851851851851852,0,0,0.1851851851851852,103.14814814814815,0)" xlink:href="#y"/><use transform="matrix(0.1851851851851852,0,0,0.1851851851851852,140.1851851851852,0)" xlink:href="#z"/><use transform="matrix(0.1851851851851852,0,0,0.1851851851851852,177.22222222222223,0)" xlink:href="#v"/><use transform="matrix(0.1851851851851852,0,0,0.1851851851851852,199.25925925925927,0)" xlink:href="#A"/><use transform="matrix(0.1851851851851852,0,0,0.1851851851851852,239.81481481481484,0)" xlink:href="#B"/><use transform="matrix(0.1851851851851852,0,0,0.1851851851851852,280.3703703703704,0)" xlink:href="#C"/><use transform="matrix(0.1851851851851852,0,0,0.1851851851851852,317.4074074074074,0)" xlink:href="#D"/><use transform="matrix(0.1851851851851852,0,0,0.1851851851851852,357.96296296296293,0)" xlink:href="#v"/><use transform="matrix(0.1851851851851852,0,0,0.1851851851851852,380.00000000000006,0)" xlink:href="#z"/></g><path fill="#333" d="M190-63c-7 42-38 67-86 67-59 0-84-38-90-98-12-110 154-137 174-36l-49 2c-2-19-15-32-35-32-30 0-35 28-38 64-6 74 65 87 74 30" id="E"/><path fill="#333" d="M25 0v-261h50V0H25" id="F"/><path fill="#333" d="M195-6C206 82 75 100 31 46c-4-6-6-13-8-21l49-6c3 16 16 24 34 25 40 0 42-37 40-79-11 22-30 35-61 35-53 0-70-43-70-97 0-56 18-96 73-97 30 0 46 14 59 34l2-30h47zm-90-29c32 0 41-27 41-63 0-35-9-62-40-62-32 0-39 29-40 63 0 36 9 62 39 62" id="G"/><g id="b"><use transform="matrix(0.1851851851851852,0,0,0.1851851851851852,0,0)" xlink:href="#E"/><use transform="matrix(0.1851851851851852,0,0,0.1851851851851852,37.03703703703704,0)" xlink:href="#w"/><use transform="matrix(0.1851851851851852,0,0,0.1851851851851852,77.5925925925926,0)" xlink:href="#F"/><use transform="matrix(0.1851851851851852,0,0,0.1851851851851852,96.11111111111111,0)" xlink:href="#F"/><use transform="matrix(0.1851851851851852,0,0,0.1851851851851852,114.62962962962965,0)" xlink:href="#C"/><use transform="matrix(0.1851851851851852,0,0,0.1851851851851852,151.66666666666669,0)" xlink:href="#G"/><use transform="matrix(0.1851851851851852,0,0,0.1851851851851852,192.22222222222223,0)" xlink:href="#C"/><use transform="matrix(0.1851851851851852,0,0,0.1851851851851852,229.2592592592593,0)" xlink:href="#z"/></g><path fill="#333" d="M25-224v-37h50v37H25zM25 0v-190h50V0H25" id="H"/><path fill="#333" d="M121-226c-27-7-43 5-38 36h38v33H83V0H34v-157H6v-33h28c-9-59 32-81 87-68v32" id="I"/><path fill="#333" d="M133-34C117-15 103 5 69 4 32 3 11-16 11-54c-1-60 55-63 116-61 1-26-3-47-28-47-18 1-26 9-28 27l-52-2c7-38 36-58 82-57s74 22 75 68l1 82c-1 14 12 18 25 15v27c-30 8-71 5-69-32zm-48 3c29 0 43-24 42-57-32 0-66-3-65 30 0 17 8 27 23 27" id="J"/><path fill="#333" d="M135-150c-39-12-60 13-60 57V0H25l-1-190h47c2 13-1 29 3 40 6-28 27-53 61-41v41" id="K"/><path fill="#333" d="M220-157c-53 9-28 100-34 157h-49v-107c1-27-5-49-29-50C55-147 81-57 75 0H25l-1-190h47c2 12-1 28 3 38 10-53 101-56 108 0 13-22 24-43 59-42 82 1 51 116 57 194h-49v-107c-1-25-5-48-29-50" id="L"/><g id="c"><use transform="matrix(0.1851851851851852,0,0,0.1851851851851852,0,0)" xlink:href="#H"/><use transform="matrix(0.1851851851851852,0,0,0.1851851851851852,18.51851851851852,0)" xlink:href="#D"/><use transform="matrix(0.1851851851851852,0,0,0.1851851851851852,59.074074074074076,0)" xlink:href="#I"/><use transform="matrix(0.1851851851851852,0,0,0.1851851851851852,81.11111111111111,0)" xlink:href="#y"/><use transform="matrix(0.1851851851851852,0,0,0.1851851851851852,118.14814814814815,0)" xlink:href="#B"/><use transform="matrix(0.1851851851851852,0,0,0.1851851851851852,158.7037037037037,0)" xlink:href="#C"/><use transform="matrix(0.1851851851851852,0,0,0.1851851851851852,195.7407407407407,0)" xlink:href="#x"/><use transform="matrix(0.1851851851851852,0,0,0.1851851851851852,236.2962962962963,0)" xlink:href="#J"/><use transform="matrix(0.1851851851851852,0,0,0.1851851851851852,273.33333333333337,0)" xlink:href="#K"/><use transform="matrix(0.1851851851851852,0,0,0.1851851851851852,299.2592592592593,0)" xlink:href="#v"/><use transform="matrix(0.1851851851851852,0,0,0.1851851851851852,321.2962962962963,0)" xlink:href="#L"/><use transform="matrix(0.1851851851851852,0,0,0.1851851851851852,380.5555555555555,0)" xlink:href="#C"/><use transform="matrix(0.1851851851851852,0,0,0.1851851851851852,417.5925925925926,0)" xlink:href="#D"/><use transform="matrix(0.1851851851851852,0,0,0.1851851851851852,458.1481481481482,0)" xlink:href="#v"/><use transform="matrix(0.1851851851851852,0,0,0.1851851851851852,480.1851851851852,0)" xlink:href="#z"/></g><path fill="#333" d="M25-224v-37h50v37H25zM75 22c2 45-34 59-81 51V38c22 5 31-5 31-27v-201h50V22" id="M"/><g id="d"><use transform="matrix(0.1851851851851852,0,0,0.1851851851851852,0,0)" xlink:href="#z"/><use transform="matrix(0.1851851851851852,0,0,0.1851851851851852,37.03703703703704,0)" xlink:href="#v"/><use transform="matrix(0.1851851851851852,0,0,0.1851851851851852,59.074074074074076,0)" xlink:href="#A"/><use transform="matrix(0.1851851851851852,0,0,0.1851851851851852,99.62962962962963,0)" xlink:href="#B"/><use transform="matrix(0.1851851851851852,0,0,0.1851851851851852,140.1851851851852,0)" xlink:href="#C"/><use transform="matrix(0.1851851851851852,0,0,0.1851851851851852,177.22222222222223,0)" xlink:href="#D"/><use transform="matrix(0.1851851851851852,0,0,0.1851851851851852,217.77777777777774,0)" xlink:href="#v"/><use transform="matrix(0.1851851851851852,0,0,0.1851851851851852,239.81481481481478,0)" xlink:href="#y"/><use transform="matrix(0.1851851851851852,0,0,0.1851851851851852,276.85185185185185,0)" xlink:href="#x"/><use transform="matrix(0.1851851851851852,0,0,0.1851851851851852,317.4074074074074,0)" xlink:href="#K"/><use transform="matrix(0.1851851851851852,0,0,0.1851851851851852,343.3333333333333,0)" xlink:href="#w"/><use transform="matrix(0.1851851851851852,0,0,0.1851851851851852,383.88888888888886,0)" xlink:href="#M"/><use transform="matrix(0.1851851851851852,0,0,0.1851851851851852,402.40740740740733,0)" xlink:href="#C"/><use transform="matrix(0.1851851851851852,0,0,0.1851851851851852,439.4444444444445,0)" xlink:href="#E"/><use transform="matrix(0.1851851851851852,0,0,0.1851851851851852,476.4814814814815,0)" xlink:href="#v"/><use transform="matrix(0.1851851851851852,0,0,0.1851851851851852,498.5185185185186,0)" xlink:href="#z"/></g><g id="e"><use transform="matrix(0.1851851851851852,0,0,0.1851851851851852,0,0)" xlink:href="#E"/><use transform="matrix(0.1851851851851852,0,0,0.1851851851851852,37.03703703703704,0)" xlink:href="#J"/><use transform="matrix(0.1851851851851852,0,0,0.1851851851851852,74.07407407407408,0)" xlink:href="#K"/><use transform="matrix(0.1851851851851852,0,0,0.1851851851851852,100.00000000000001,0)" xlink:href="#C"/><use transform="matrix(0.1851851851851852,0,0,0.1851851851851852,137.03703703703704,0)" xlink:href="#C"/><use transform="matrix(0.1851851851851852,0,0,0.1851851851851852,174.07407407407408,0)" xlink:href="#K"/><use transform="matrix(0.1851851851851852,0,0,0.1851851851851852,200.00000000000003,0)" xlink:href="#y"/><use transform="matrix(0.1851851851851852,0,0,0.1851851851851852,237.037037037037,0)" xlink:href="#w"/><use transform="matrix(0.1851851851851852,0,0,0.1851851851851852,277.5925925925926,0)" xlink:href="#x"/><use transform="matrix(0.1851851851851852,0,0,0.1851851851851852,318.14814814814815,0)" xlink:href="#x"/><use transform="matrix(0.1851851851851852,0,0,0.1851851851851852,358.7037037037037,0)" xlink:href="#w"/><use transform="matrix(0.1851851851851852,0,0,0.1851851851851852,399.25925925925924,0)" xlink:href="#K"/><use transform="matrix(0.1851851851851852,0,0,0.1851851851851852,425.18518518518516,0)" xlink:href="#v"/><use transform="matrix(0.1851851851851852,0,0,0.1851851851851852,447.2222222222222,0)" xlink:href="#A"/><use transform="matrix(0.1851851851851852,0,0,0.1851851851851852,487.7777777777777,0)" xlink:href="#D"/><use transform="matrix(0.1851851851851852,0,0,0.1851851851851852,528.3333333333333,0)" xlink:href="#H"/><use transform="matrix(0.1851851851851852,0,0,0.1851851851851852,546.8518518518517,0)" xlink:href="#v"/><use transform="matrix(0.1851851851851852,0,0,0.1851851851851852,568.8888888888888,0)" xlink:href="#H"/><use transform="matrix(0.1851851851851852,0,0,0.1851851851851852,587.4074074074073,0)" xlink:href="#C"/><use transform="matrix(0.1851851851851852,0,0,0.1851851851851852,624.4444444444443,0)" xlink:href="#z"/></g><path fill="#333" d="M230 0l2-204L168 0h-37L68-204 70 0H24v-248h70l56 185 57-185h69V0h-46" id="N"/><path fill="#333" d="M123 10C108 53 80 86 19 72V37c35 8 53-11 59-39L3-190h52l48 148c12-52 28-100 44-148h51" id="O"/><path fill="#333" d="M199 0l-22-63H83L61 0H9l90-248h61L250 0h-51zm-33-102l-36-108c-10 38-24 72-36 108h72" id="P"/><g id="f"><use transform="matrix(0.1851851851851852,0,0,0.1851851851851852,0,0)" xlink:href="#N"/><use transform="matrix(0.1851851851851852,0,0,0.1851851851851852,55.370370370370374,0)" xlink:href="#O"/><use transform="matrix(0.1851851851851852,0,0,0.1851851851851852,92.40740740740742,0)" xlink:href="#y"/><use transform="matrix(0.1851851851851852,0,0,0.1851851851851852,129.44444444444446,0)" xlink:href="#P"/><use transform="matrix(0.1851851851851852,0,0,0.1851851851851852,177.40740740740742,0)" xlink:href="#B"/><use transform="matrix(0.1851851851851852,0,0,0.1851851851851852,217.962962962963,0)" xlink:href="#L"/><use transform="matrix(0.1851851851851852,0,0,0.1851851851851852,277.2222222222223,0)" xlink:href="#H"/><use transform="matrix(0.1851851851851852,0,0,0.1851851851851852,295.7407407407408,0)" xlink:href="#D"/><use transform="matrix(0.1851851851851852,0,0,0.1851851851851852,336.29629629629636,0)" xlink:href="#z"/></g><path fill="#333" d="M128 0H69L1-190h53L99-40l48-150h52" id="Q"/><g id="g"><use transform="matrix(0.1851851851851852,0,0,0.1851851851851852,0,0)" xlink:href="#A"/><use transform="matrix(0.1851851851851852,0,0,0.1851851851851852,40.55555555555556,0)" xlink:href="#D"/><use transform="matrix(0.1851851851851852,0,0,0.1851851851851852,81.11111111111111,0)" xlink:href="#H"/><use transform="matrix(0.1851851851851852,0,0,0.1851851851851852,99.62962962962963,0)" xlink:href="#Q"/><use transform="matrix(0.1851851851851852,0,0,0.1851851851851852,136.66666666666669,0)" xlink:href="#C"/><use transform="matrix(0.1851851851851852,0,0,0.1851851851851852,173.70370370370372,0)" xlink:href="#K"/><use transform="matrix(0.1851851851851852,0,0,0.1851851851851852,199.62962962962965,0)" xlink:href="#z"/><use transform="matrix(0.1851851851851852,0,0,0.1851851851851852,236.66666666666669,0)" xlink:href="#H"/><use transform="matrix(0.1851851851851852,0,0,0.1851851851851852,255.18518518518522,0)" xlink:href="#v"/><use transform="matrix(0.1851851851851852,0,0,0.1851851851851852,277.2222222222223,0)" xlink:href="#H"/><use transform="matrix(0.1851851851851852,0,0,0.1851851851851852,295.7407407407408,0)" xlink:href="#C"/><use transform="matrix(0.1851851851851852,0,0,0.1851851851851852,332.7777777777778,0)" xlink:href="#z"/></g><path fill="#333" d="M169-182c-1-43-94-46-97-3 18 66 151 10 154 114 3 95-165 93-204 36-6-8-10-19-12-30l50-8c3 46 112 56 116 5-17-69-150-10-154-114-4-87 153-88 188-35 5 8 8 18 10 28" id="R"/><path fill="#333" d="M114-157C55-157 80-60 75 0H25v-261h50l-1 109c12-26 28-41 61-42 86-1 58 113 63 194h-50c-7-57 23-157-34-157" id="S"/><path fill="#333" d="M231 0h-52l-39-155L100 0H48L-1-190h46L77-45c9-52 24-97 36-145h53l37 145 32-145h46" id="T"/><path fill="#333" d="M67-125c0 53 21 87 73 88 37 1 54-22 65-47l45 17C233-25 199 4 140 4 58 4 20-42 15-125 8-235 124-281 211-232c18 10 29 29 36 50l-46 12c-8-25-30-41-62-41-52 0-71 34-72 86" id="U"/><g id="h"><use transform="matrix(0.1851851851851852,0,0,0.1851851851851852,0,0)" xlink:href="#R"/><use transform="matrix(0.1851851851851852,0,0,0.1851851851851852,44.44444444444445,0)" xlink:href="#S"/><use transform="matrix(0.1851851851851852,0,0,0.1851851851851852,85,0)" xlink:href="#w"/><use transform="matrix(0.1851851851851852,0,0,0.1851851851851852,125.55555555555557,0)" xlink:href="#T"/><use transform="matrix(0.1851851851851852,0,0,0.1851851851851852,177.40740740740742,0)" xlink:href="#U"/><use transform="matrix(0.1851851851851852,0,0,0.1851851851851852,225.37037037037038,0)" xlink:href="#w"/><use transform="matrix(0.1851851851851852,0,0,0.1851851851851852,265.9259259259259,0)" xlink:href="#F"/><use transform="matrix(0.1851851851851852,0,0,0.1851851851851852,284.44444444444446,0)" xlink:href="#F"/><use transform="matrix(0.1851851851851852,0,0,0.1851851851851852,302.962962962963,0)" xlink:href="#C"/><use transform="matrix(0.1851851851851852,0,0,0.1851851851851852,340,0)" xlink:href="#G"/><use transform="matrix(0.1851851851851852,0,0,0.1851851851851852,380.5555555555555,0)" xlink:href="#C"/></g><path fill="#333" d="M24-248c120-7 223 5 221 122C244-46 201 0 124 0H24v-248zM76-40c74 7 117-18 117-86 0-67-45-88-117-82v168" id="V"/><g id="i"><use transform="matrix(0.1851851851851852,0,0,0.1851851851851852,0,0)" xlink:href="#R"/><use transform="matrix(0.1851851851851852,0,0,0.1851851851851852,44.44444444444445,0)" xlink:href="#S"/><use transform="matrix(0.1851851851851852,0,0,0.1851851851851852,85,0)" xlink:href="#w"/><use transform="matrix(0.1851851851851852,0,0,0.1851851851851852,125.55555555555557,0)" xlink:href="#T"/><use transform="matrix(0.1851851851851852,0,0,0.1851851851851852,177.40740740740742,0)" xlink:href="#V"/><use transform="matrix(0.1851851851851852,0,0,0.1851851851851852,225.37037037037038,0)" xlink:href="#C"/><use transform="matrix(0.1851851851851852,0,0,0.1851851851851852,262.4074074074074,0)" xlink:href="#x"/><use transform="matrix(0.1851851851851852,0,0,0.1851851851851852,302.96296296296293,0)" xlink:href="#J"/><use transform="matrix(0.1851851851851852,0,0,0.1851851851851852,340,0)" xlink:href="#K"/><use transform="matrix(0.1851851851851852,0,0,0.1851851851851852,365.9259259259259,0)" xlink:href="#v"/><use transform="matrix(0.1851851851851852,0,0,0.1851851851851852,387.96296296296293,0)" xlink:href="#L"/><use transform="matrix(0.1851851851851852,0,0,0.1851851851851852,447.2222222222222,0)" xlink:href="#C"/><use transform="matrix(0.1851851851851852,0,0,0.1851851851851852,484.25925925925924,0)" xlink:href="#D"/><use transform="matrix(0.1851851851851852,0,0,0.1851851851851852,524.8148148148148,0)" xlink:href="#v"/></g><g id="j"><use transform="matrix(0.1851851851851852,0,0,0.1851851851851852,0,0)" xlink:href="#E"/><use transform="matrix(0.1851851851851852,0,0,0.1851851851851852,37.03703703703704,0)" xlink:href="#w"/><use transform="matrix(0.1851851851851852,0,0,0.1851851851851852,77.5925925925926,0)" xlink:href="#A"/><use transform="matrix(0.1851851851851852,0,0,0.1851851851851852,118.14814814814815,0)" xlink:href="#K"/><use transform="matrix(0.1851851851851852,0,0,0.1851851851851852,144.07407407407408,0)" xlink:href="#z"/><use transform="matrix(0.1851851851851852,0,0,0.1851851851851852,181.11111111111111,0)" xlink:href="#C"/><use transform="matrix(0.1851851851851852,0,0,0.1851851851851852,218.14814814814818,0)" xlink:href="#z"/></g><path fill="#fff" d="M186-122c-35 72 25 83 99 80V0H0v-42c69 3 91-16 121-99l183-512-11-30h157l215 545c28 71 53 92 109 96V0H424v-42c49 2 109 0 102-41-11-56-43-114-62-166H231zm67-186h187l-99-250" id="W"/><path fill="#fff" d="M383-560c4-66-26-64-72-78v-26l167-53h36v576c-4 82 24 87 76 73v32L412 11h-29v-85c-67 59-118 85-172 85C109 11 37-73 37-191c0-176 155-306 346-244v-125zM168-249c0 167 125 237 215 127v-239c-91-93-215-43-215 112" id="X"/><path fill="#fff" d="M219-119c-3 71 16 81 72 85V0H20v-34c50 2 68-17 68-75v-215c5-24-42-42-70-49v-27l181-61h20v123c117-83 176-111 232-111 61 0 102 41 111 111 47-38 178-111 237-111 78 0 112 56 112 184v130c1 84-3 93 60 101V0H719v-34c48-6 61-36 61-141v-64c0-91-19-129-66-129-34 0-74 18-148 67v182c-3 65 14 79 60 85V0H374v-34c95 9 61-147 61-229 0-71-21-105-65-105-39 0-81 19-151 69v180" id="Y"/><path fill="#fff" d="M147-558c-47 0-83-32-83-73 0-40 40-74 88-74 46 0 83 33 83 74s-39 73-88 73zm72 439c-3 69 14 79 66 85V0H17v-34c52 3 71-15 71-75v-202c12-50-41-50-72-67v-26l183-60h20v345" id="Z"/><path fill="#fff" d="M219-119c-3 72 16 82 74 85V0H20v-34c50 2 68-17 68-75v-215c3-22-38-42-73-49v-27l184-61h20v96c47-32 159-93 199-84 134-1 112 173 112 314 1 86-3 93 62 101V0H338v-34c48-6 61-36 61-141v-64c-1-166-79-150-180-82v202" id="aa"/><g id="k"><use transform="matrix(0.08022222222222213,0,0,0.08022222222222213,0,0)" xlink:href="#W"/><use transform="matrix(0.08022222222222213,0,0,0.08022222222222213,62.09199999999993,0)" xlink:href="#X"/><use transform="matrix(0.08022222222222213,0,0,0.08022222222222213,109.58355555555542,0)" xlink:href="#Y"/><use transform="matrix(0.08022222222222213,0,0,0.08022222222222213,189.40466666666643,0)" xlink:href="#Z"/><use transform="matrix(0.08022222222222213,0,0,0.08022222222222213,214.03288888888864,0)" xlink:href="#aa"/></g><path fill="#fff" d="M271-136c-1 86 23 90 100 94V0H30v-42c73-5 93-12 93-94v-395c1-83-20-89-93-94v-42h341v42c-78 3-100 9-100 94v395" id="ab"/><path fill="#fff" d="M220 12c-28 0-77-8-111-16-6 0-12 4-22 14H57L45-126h34c24 60 61 91 112 91 47 0 73-53 39-84-14-12-13-13-80-56-78-50-104-84-104-138 0-125 169-167 287-114l2 115h-33c-20-60-56-93-102-93-28 0-49 18-49 42 0 27 20 48 78 81 68 39 75 44 97 66 23 23 36 56 36 92 0 79-60 136-142 136" id="ac"/><path fill="#fff" d="M37-209c0-140 96-240 230-240 104 0 172 56 185 159 3 17 8 26 21 34v24H174c6 91 66 164 136 164 38 0 78-23 129-77l24 21C402-39 316 11 233 11 117 11 37-79 37-209zm135-57h153c-1-82-29-132-76-132-49-1-81 58-77 132" id="ad"/><path fill="#fff" d="M20 0v-34c50 2 68-17 68-75v-176c6-63-27-67-68-83v-27l176-66h23v120c69-113 55-119 140-98l62 24c-12 41-33 89-51 114-26-8-58-27-88-27-20 0-40 15-63 48v161c-4 81 28 88 100 85V0H20" id="ae"/><path fill="#fff" d="M205 11C114 11 84-40 84-152v-233H27v-21c61-23 138-105 158-166h30v130h142l-15 57H215v242c-3 62 8 72 50 81 26 0 51-17 81-54l16 30c-33 57-97 97-157 97" id="af"/><g id="l"><use transform="matrix(0.05333333333333334,0,0,0.05333333333333334,0,0)" xlink:href="#ab"/><use transform="matrix(0.05333333333333334,0,0,0.05333333333333334,21.066666666666666,0)" xlink:href="#aa"/><use transform="matrix(0.05333333333333334,0,0,0.05333333333333334,53.81333333333333,0)" xlink:href="#ac"/><use transform="matrix(0.05333333333333334,0,0,0.05333333333333334,75.25333333333333,0)" xlink:href="#ad"/><use transform="matrix(0.05333333333333334,0,0,0.05333333333333334,101.70666666666666,0)" xlink:href="#ae"/><use transform="matrix(0.05333333333333334,0,0,0.05333333333333334,125.28,0)" xlink:href="#af"/></g><path fill="#fff" d="M123-531c1-86-22-90-99-94v-42c190-15 435-31 582 14 136 41 222 158 222 302 0 135-84 258-204 310C489 18 223-6 23 0v-42c78-3 100-9 100-94v-395zm545 196c2-216-154-328-397-292v502c0 73 11 83 91 83 191 0 305-111 306-293" id="ag"/><path fill="#fff" d="M219-119c-3 67 14 79 64 85V0H17v-34c52 3 71-15 71-75v-442c8-76-34-61-74-81v-32l186-53h19v598" id="ah"/><g id="m"><use transform="matrix(0.05333333333333334,0,0,0.05333333333333334,0,0)" xlink:href="#ag"/><use transform="matrix(0.05333333333333334,0,0,0.05333333333333334,46.66666666666667,0)" xlink:href="#ad"/><use transform="matrix(0.05333333333333334,0,0,0.05333333333333334,72.96000000000001,0)" xlink:href="#ah"/><use transform="matrix(0.05333333333333334,0,0,0.05333333333333334,88.85333333333334,0)" xlink:href="#ad"/><use transform="matrix(0.05333333333333334,0,0,0.05333333333333334,115.14666666666668,0)" xlink:href="#af"/><use transform="matrix(0.05333333333333334,0,0,0.05333333333333334,134.88,0)" xlink:href="#ad"/></g><path fill="#fff" d="M830-625c-84 8-106 11-106 118 0 113 9 286-20 360C663-42 566 15 416 15c-159 0-275-64-300-174-22-97-10-255-10-372 0-94-13-86-93-94v-42h336v42c-74 4-95 11-95 94v265c0 73 4 96 23 128 30 52 93 82 173 82 149 0 209-76 209-252v-187c0-109-15-126-107-130v-42h278v42" id="ai"/><path fill="#fff" d="M572-247c0 135-100 258-247 258-34 0-66-4-106-13v108c0 81 19 99 106 104v34H17v-34c68-3 71-18 71-101v-421c5-49-36-52-69-64v-27l172-58h28v102c87-71 124-90 178-90 100 0 175 87 175 202zM219-80c30 32 73 52 109 52 66 0 112-65 112-158 0-109-47-183-114-183-33 0-65 17-107 55v234" id="aj"/><path fill="#fff" d="M251-450c91 0 175 40 175 150 0 55-2 180 4 217 10 24 27 21 49 4l16 25c-35 37-87 64-122 64-40 0-66-22-75-64-36 29-76 65-134 65C87 11 39-32 39-101c0-74 46-111 122-130 63-16 104-39 132-64 7-62-13-111-66-112-43-1-65 35-56 83L51-282c-4-17-5-25-5-36 0-85 127-132 205-132zm-83 327c0 44 22 74 54 74 18 0 32-8 73-44v-154c-20 16-28 20-69 39-43 21-58 43-58 85" id="ak"/><g id="n"><use transform="matrix(0.05333333333333334,0,0,0.05333333333333334,0,0)" xlink:href="#ai"/><use transform="matrix(0.05333333333333334,0,0,0.05333333333333334,43.14666666666667,0)" xlink:href="#aj"/><use transform="matrix(0.05333333333333334,0,0,0.05333333333333334,75.57333333333334,0)" xlink:href="#X"/><use transform="matrix(0.05333333333333334,0,0,0.05333333333333334,107.78666666666668,0)" xlink:href="#ak"/><use transform="matrix(0.05333333333333334,0,0,0.05333333333333334,133.81333333333333,0)" xlink:href="#af"/><use transform="matrix(0.05333333333333334,0,0,0.05333333333333334,153.54666666666668,0)" xlink:href="#ad"/></g><path fill="#fff" d="M320 15c-43 0-88-12-180-35-9 0-17 6-22 17H90L63-197h41C141-91 203-36 289-36c70 0 124-46 124-105 0-35-19-68-54-95-24-19-29-23-123-71S68-400 68-509c0-102 90-175 218-175 43 0 113 15 165 28 7 0 12-2 21-11h23l20 173h-43c-22-86-92-142-175-142-60 0-105 32-105 74 0 39 28 70 97 106 87 46 101 55 140 81 85 57 123 116 123 191C552-73 450 15 320 15" id="al"/><path fill="#fff" d="M88-152v-163c4-56-16-55-45-71v-24l154-39h22v235c0 71 3 95 17 115 12 19 31 29 53 29 25 0 62-15 108-44v-194c9-66-47-60-88-77v-25l219-39v328c-4 73 21 71 63 58v33L418 11h-21v-85c-96 61-150 85-193 85-76 0-116-57-116-163" id="am"/><path fill="#fff" d="M74-22v-539c8-60-28-61-66-78v-26l163-52h34v357c62-57 127-89 179-89 97 0 173 91 173 206C557-96 441 12 285 12 236 12 137-4 74-22zm131-158c0 102 29 146 96 146 76 0 121-60 121-161 0-155-137-225-217-114v129" id="an"/><g id="o"><use transform="matrix(0.08022222222222213,0,0,0.08022222222222213,0,0)" xlink:href="#al"/><use transform="matrix(0.08022222222222213,0,0,0.08022222222222213,48.37399999999994,0)" xlink:href="#am"/><use transform="matrix(0.08022222222222213,0,0,0.08022222222222213,96.82822222222211,0)" xlink:href="#an"/><use transform="matrix(0.08022222222222213,0,0,0.08022222222222213,144.48022222222204,0)" xlink:href="#W"/><use transform="matrix(0.08022222222222213,0,0,0.08022222222222213,206.57222222222197,0)" xlink:href="#X"/><use transform="matrix(0.08022222222222213,0,0,0.08022222222222213,254.06377777777746,0)" xlink:href="#Y"/><use transform="matrix(0.08022222222222213,0,0,0.08022222222222213,333.88488888888844,0)" xlink:href="#Z"/><use transform="matrix(0.08022222222222213,0,0,0.08022222222222213,358.5131111111106,0)" xlink:href="#aa"/></g><g id="p"><use transform="matrix(0.08022222222222213,0,0,0.08022222222222213,0,0)" xlink:href="#ag"/><use transform="matrix(0.08022222222222213,0,0,0.08022222222222213,70.19444444444436,0)" xlink:href="#ad"/><use transform="matrix(0.08022222222222213,0,0,0.08022222222222213,109.90444444444431,0)" xlink:href="#aj"/><use transform="matrix(0.08022222222222213,0,0,0.08022222222222213,158.67955555555537,0)" xlink:href="#ak"/><use transform="matrix(0.08022222222222213,0,0,0.08022222222222213,198.38955555555532,0)" xlink:href="#ae"/><use transform="matrix(0.08022222222222213,0,0,0.08022222222222213,233.8477777777775,0)" xlink:href="#af"/><use transform="matrix(0.08022222222222213,0,0,0.08022222222222213,263.5299999999997,0)" xlink:href="#Y"/><use transform="matrix(0.08022222222222213,0,0,0.08022222222222213,342.7895555555551,0)" xlink:href="#ad"/><use transform="matrix(0.08022222222222213,0,0,0.08022222222222213,382.820444444444,0)" xlink:href="#aa"/><use transform="matrix(0.08022222222222213,0,0,0.08022222222222213,430.9537777777773,0)" xlink:href="#af"/></g><g id="q"><use transform="matrix(0.08022222222222213,0,0,0.08022222222222213,0,0)" xlink:href="#W"/><use transform="matrix(0.08022222222222213,0,0,0.08022222222222213,62.09199999999993,0)" xlink:href="#X"/><use transform="matrix(0.08022222222222213,0,0,0.08022222222222213,109.58355555555542,0)" xlink:href="#Y"/><use transform="matrix(0.08022222222222213,0,0,0.08022222222222213,189.40466666666643,0)" xlink:href="#Z"/><use transform="matrix(0.08022222222222213,0,0,0.08022222222222213,214.03288888888864,0)" xlink:href="#aa"/></g><path fill="#fff" d="M271-136c-4 93 33 91 117 94V0H13v-42c82-2 110-5 110-94v-395c3-89-27-91-108-94v-42c130-11 242-17 316-17 192 0 347 40 347 196 0 82-60 147-159 174 36 30 54 56 120 144C721-60 761-37 846-31v42c-94 4-195-1-243-25-49-24-65-39-158-166-35-49-59-77-89-104h-85v148zm0-189c159 5 246-40 246-157 0-121-99-171-246-155v312" id="ao"/><path fill="#fff" d="M47-332c0-205 189-356 410-356 226 0 384 140 384 341 0 211-169 362-405 362C206 15 47-127 47-332zm634 20c1-160-86-330-250-330-136 0-223 105-223 268 0 204 103 343 253 343 146 0 220-132 220-281" id="ap"/><path fill="#fff" d="M121 120c61 0 99-77 120-131L95-306c-41-83-53-95-101-98v-34h274v34c-56-1-64 27-41 74l85 175 82-165c27-47 4-82-56-84v-34h200v34c-47 10-64 24-94 86L228 124c-32 65-32 65-47 85-19 26-46 41-74 41-39 0-67-26-67-61 0-43 25-69 81-69" id="aq"/><g id="r"><use transform="matrix(0.05333333333333334,0,0,0.05333333333333334,0,0)" xlink:href="#ao"/><use transform="matrix(0.05333333333333334,0,0,0.05333333333333334,44.05333333333334,0)" xlink:href="#ad"/><use transform="matrix(0.05333333333333334,0,0,0.05333333333333334,71.04,0)" xlink:href="#ak"/><use transform="matrix(0.05333333333333334,0,0,0.05333333333333334,97.44000000000001,0)" xlink:href="#X"/><use transform="matrix(0.05333333333333334,0,0,0.05333333333333334,129.01333333333335,0)" xlink:href="#ap"/><use transform="matrix(0.05333333333333334,0,0,0.05333333333333334,176.8,0)" xlink:href="#aa"/><use transform="matrix(0.05333333333333334,0,0,0.05333333333333334,209.54666666666668,0)" xlink:href="#ah"/><use transform="matrix(0.05333333333333334,0,0,0.05333333333333334,225.54666666666668,0)" xlink:href="#aq"/></g><path fill="#fff" d="M91-218c7 77-29 197 56 197 84 0 47-121 55-197l-31-5v-13h80v13l-27 5v137c-1 56-32 84-91 84-59-1-96-26-97-85v-136l-27-5v-13h112v13" id="ar"/><path fill="#fff" d="M186-86c2 69-46 103-114 85l1 62 25 4v12H5V65l18-4v-210l-18-5v-11h67v8c12-8 26-13 46-13 49 2 67 30 68 84zm-83 71c28 0 31-33 31-69 0-34-2-66-30-66-12 0-23 3-31 7v124c9 2 20 4 30 4" id="as"/><path fill="#fff" d="M15-82c-4-69 47-101 113-83l-1-69-17-4v-12h68v234l18 4V0h-63l-4-9C77 23 5-9 15-82zm112-66c-43-16-64 17-61 65 2 33 3 67 32 67 12 0 22-3 29-8v-124" id="at"/><path fill="#fff" d="M31-163c51-5 127-20 127 40v107l17 4V0h-61l-4-13C82 13 12 12 12-46c0-51 46-52 95-53 9-45-22-69-57-44l-7 20H31v-40zM62-47c0 30 26 34 45 23v-59c-28 0-45 6-45 36" id="au"/><path fill="#fff" d="M78-41c-2 24 21 26 40 20C122 3 98 2 77 4 5 10 32-84 27-147H6v-11l25-7 21-38h26v38h35v18H78v106" id="av"/><path fill="#fff" d="M12-83c0-55 22-85 75-86 52-1 66 33 63 88H64c-1 37 6 64 44 63 14 0 28-4 39-6 3 28-28 25-55 27-57 4-80-31-80-86zm90-17c2-26 0-63-27-48-10 9-11 28-11 48h38" id="aw"/><g id="s"><use transform="matrix(0.14814814814814817,0,0,0.14814814814814817,0,0)" xlink:href="#ar"/><use transform="matrix(0.14814814814814817,0,0,0.14814814814814817,38.370370370370374,0)" xlink:href="#as"/><use transform="matrix(0.14814814814814817,0,0,0.14814814814814817,68,0)" xlink:href="#at"/><use transform="matrix(0.14814814814814817,0,0,0.14814814814814817,97.62962962962962,0)" xlink:href="#au"/><use transform="matrix(0.14814814814814817,0,0,0.14814814814814817,124.29629629629632,0)" xlink:href="#av"/><use transform="matrix(0.14814814814814817,0,0,0.14814814814814817,141.92592592592592,0)" xlink:href="#aw"/></g><path fill="#fff" d="M98-18l30 5V0H12v-13l30-5v-200l-30-5v-13h116v13l-30 5v200" id="ax"/><path fill="#fff" d="M127-114c3-31-26-38-50-25v123l15 4V0H10v-12l16-4v-133l-16-5v-11h64l2 14c31-23 102-32 102 30v105l17 4V0h-82v-12l14-4v-98" id="ay"/><path fill="#fff" d="M107-230c-31-13-29 30-29 65h34v18H78v131l27 4V0H10v-12l18-4v-131H3v-12l25-7c-8-66 31-98 95-84v39h-11" id="az"/><path fill="#fff" d="M90-170c54-1 76 32 76 87 1 56-23 87-77 87-53 0-75-32-75-87s23-86 76-87zM89-14c28-2 26-38 26-69s3-69-26-69c-27 0-24 39-24 69s-3 66 24 69" id="aA"/><path fill="#fff" d="M132-132c-21 0-37 9-50 16v100l26 4V0H10v-12l21-4v-133l-21-5v-11h69l2 34c17-18 35-41 71-40v61c-17 3-14-14-20-22" id="aB"/><path fill="#fff" d="M126-114c3-31-27-37-49-25v123l15 4V0H10v-12l16-4v-133l-16-5v-11h64l2 14c24-16 81-33 96 3 30-24 105-39 105 27v105l17 4V0h-82v-12l14-4v-98c4-33-27-37-51-24 5 35 0 82 2 122l17 4V0h-83v-12l15-4v-98" id="aC"/><path fill="#fff" d="M77-16l18 4V0H8v-12l18-4v-133l-17-5v-11h68v149zM51-196c-16 0-27-10-27-27s10-27 27-27 27 11 27 27c0 17-10 27-27 27" id="aD"/><g id="t"><use transform="matrix(0.14814814814814817,0,0,0.14814814814814817,0,0)" xlink:href="#ax"/><use transform="matrix(0.14814814814814817,0,0,0.14814814814814817,20.740740740740744,0)" xlink:href="#ay"/><use transform="matrix(0.14814814814814817,0,0,0.14814814814814817,50.370370370370374,0)" xlink:href="#az"/><use transform="matrix(0.14814814814814817,0,0,0.14814814814814817,68.00000000000001,0)" xlink:href="#aA"/><use transform="matrix(0.14814814814814817,0,0,0.14814814814814817,94.66666666666669,0)" xlink:href="#aB"/><use transform="matrix(0.14814814814814817,0,0,0.14814814814814817,118.22222222222224,0)" xlink:href="#aC"/><use transform="matrix(0.14814814814814817,0,0,0.14814814814814817,162.51851851851853,0)" xlink:href="#au"/><use transform="matrix(0.14814814814814817,0,0,0.14814814814814817,189.18518518518522,0)" xlink:href="#av"/><use transform="matrix(0.14814814814814817,0,0,0.14814814814814817,206.81481481481484,0)" xlink:href="#aD"/><use transform="matrix(0.14814814814814817,0,0,0.14814814814814817,221.62962962962965,0)" xlink:href="#aA"/><use transform="matrix(0.14814814814814817,0,0,0.14814814814814817,248.2962962962963,0)" xlink:href="#ay"/></g><path fill="#fff" d="M76-116c0 86 71 126 135 84l6-39h16l-1 60C138 21 18 1 18-115c0-117 106-141 210-112l1 57h-16l-5-34c-13-9-32-16-54-16-60 0-78 42-78 104" id="aE"/><path fill="#fff" d="M76-16l18 4V0H7v-12l18-4v-218l-17-4v-12h68v234" id="aF"/><path fill="#fff" d="M9 41c2-18 18-26 32-33C29 1 16-9 16-28l29-33c-21-9-31-25-31-51-2-56 61-65 111-53l39-20c13 12-9 24-14 36 35 54-17 114-90 92-17 34 27 28 56 28 36-1 61 12 60 46-2 46-39 62-91 62-38 0-71-6-76-38zm35-3c6 35 97 29 94-9-2-28-50-14-78-17-8 7-15 14-16 26zm20-150c0 22 4 40 23 40 20 0 24-17 24-40 0-24-4-40-24-40-19 0-23 17-23 40" id="aG"/><g id="u"><use transform="matrix(0.14814814814814817,0,0,0.14814814814814817,0,0)" xlink:href="#aE"/><use transform="matrix(0.14814814814814817,0,0,0.14814814814814817,38.370370370370374,0)" xlink:href="#aA"/><use transform="matrix(0.14814814814814817,0,0,0.14814814814814817,65.03703703703704,0)" xlink:href="#aF"/><use transform="matrix(0.14814814814814817,0,0,0.14814814814814817,79.85185185185185,0)" xlink:href="#aF"/><use transform="matrix(0.14814814814814817,0,0,0.14814814814814817,94.66666666666666,0)" xlink:href="#aw"/><use transform="matrix(0.14814814814814817,0,0,0.14814814814814817,118.22222222222221,0)" xlink:href="#aG"/><use transform="matrix(0.14814814814814817,0,0,0.14814814814814817,144.88888888888889,0)" xlink:href="#aw"/></g></defs></g></svg>